<svg xmlns="http://www.w3.org/2000/svg" xmlns:xlink="http://www.w3.org/1999/xlink" viewBox="0 0 3314.62 7382.47"><defs><style>.cls-1{isolation:isolate;}.cls-2{opacity:0.1;}.cls-3,.cls-5{fill:#010101;}.cls-4,.cls-5{opacity:0.05;}.cls-10,.cls-11,.cls-12,.cls-13,.cls-14,.cls-15,.cls-16,.cls-17,.cls-18,.cls-6,.cls-7,.cls-8,.cls-9{opacity:0.2;}.cls-11,.cls-12,.cls-13,.cls-14,.cls-6,.cls-7{mix-blend-mode:multiply;}.cls-6{fill:url(#linear-gradient);}.cls-7{fill:url(#linear-gradient-2);}.cls-8{fill:url(#linear-gradient-3);}.cls-9{fill:url(#linear-gradient-4);}.cls-10{fill:url(#linear-gradient-5);}.cls-11{fill:url(#linear-gradient-6);}.cls-12{fill:url(#linear-gradient-7);}.cls-13{fill:url(#linear-gradient-8);}.cls-14{fill:url(#linear-gradient-9);}.cls-15{fill:url(#linear-gradient-10);}.cls-16{fill:url(#linear-gradient-11);}.cls-17{fill:url(#linear-gradient-12);}.cls-18{fill:url(#linear-gradient-13);}</style><linearGradient id="linear-gradient" x1="1424.1" y1="-4.67" x2="1117.22" y2="-693.7" gradientTransform="translate(984.95 1866.39) rotate(-90)" gradientUnits="userSpaceOnUse"><stop offset="0" stop-color="#4bbea4"/><stop offset="1" stop-color="#4e4ea1"/></linearGradient><linearGradient id="linear-gradient-2" x1="-709.04" y1="1794.65" x2="-976.41" y2="1194.32" gradientTransform="translate(4238.93 2704.29) rotate(90)" xlink:href="#linear-gradient"/><linearGradient id="linear-gradient-3" x1="1984.28" y1="872.99" x2="948.02" y2="2060.6" gradientTransform="translate(963.34 2048.31) rotate(-90)" gradientUnits="userSpaceOnUse"><stop offset="0.32" stop-color="#19a2b2"/><stop offset="0.64" stop-color="#1d8bb7"/><stop offset="1" stop-color="#2075bc"/></linearGradient><linearGradient id="linear-gradient-4" x1="398.84" y1="-898.53" x2="-159.55" y2="-258.59" xlink:href="#linear-gradient-3"/><linearGradient id="linear-gradient-5" x1="953.77" y1="92.34" x2="610.36" y2="485.91" xlink:href="#linear-gradient-3"/><linearGradient id="linear-gradient-6" x1="-1316.87" y1="125.44" x2="-1623.75" y2="-563.6" gradientTransform="translate(-238.78 2845.84) rotate(-131.92)" xlink:href="#linear-gradient"/><linearGradient id="linear-gradient-7" x1="-3529.94" y1="1038.1" x2="-3933.95" y2="130.98" gradientTransform="translate(-238.78 2845.84) rotate(-131.92)" xlink:href="#linear-gradient"/><linearGradient id="linear-gradient-8" x1="1871.57" y1="1938.74" x2="1604.19" y2="1338.41" gradientTransform="translate(2742.26 1295.42) rotate(48.08)" xlink:href="#linear-gradient"/><linearGradient id="linear-gradient-9" x1="2662.22" y1="5404.25" x2="2394.85" y2="4803.92" gradientTransform="translate(2742.26 1295.42) rotate(48.08)" xlink:href="#linear-gradient"/><linearGradient id="linear-gradient-10" x1="-539.31" y1="616.71" x2="-1513.46" y2="1733.13" gradientTransform="translate(-131.41 2991.79) rotate(-131.92)" xlink:href="#linear-gradient-3"/><linearGradient id="linear-gradient-11" x1="-2355.97" y1="-898.53" x2="-2914.36" y2="-258.59" gradientTransform="translate(-131.41 2991.79) rotate(-131.92)" xlink:href="#linear-gradient-3"/><linearGradient id="linear-gradient-12" x1="-1801.03" y1="92.34" x2="-2144.45" y2="485.91" gradientTransform="translate(-131.41 2991.79) rotate(-131.92)" xlink:href="#linear-gradient-3"/><linearGradient id="linear-gradient-13" x1="-4157.43" y1="-559.18" x2="-4500.84" y2="-165.6" gradientTransform="translate(-131.41 2991.79) rotate(-131.92)" xlink:href="#linear-gradient-3"/></defs><title>final background</title><g class="cls-1"><g id="Layer_4" data-name="Layer 4"><g class="cls-2"><path class="cls-3" d="M2660.88,7181.62l-5.93,5.93a9.89,9.89,0,1,0,14,14l5.93-5.94a9.88,9.88,0,1,0-14-14Z" transform="translate(4.07 4.44)"/><path class="cls-3" d="M2646.12,6939.51c0,.92,0,1.84,0,2.75s-.43,2.25.22-1.37a4.34,4.34,0,0,1-.14.48,8,8,0,0,1,2.12-3.66l1.68-1.3c2.07-.79,2.65-1,1.75-.74-1.35.43,3-.32,1.47-.17-1,.09-2.07.06-3.1.06a9.89,9.89,0,1,0,0,19.77c4.58,0,8.59-.47,12.17-3.64s3.64-8,3.64-12.18a9.89,9.89,0,0,0-19.77,0Z" transform="translate(4.07 4.44)"/><path class="cls-3" d="M2881.38,7032.43c12.75,0,12.75-19.77,0-19.77s-12.75,19.77,0,19.77Z" transform="translate(4.07 4.44)"/><path class="cls-3" d="M3041.51,6775.43h-5.93a9.89,9.89,0,1,0,0,19.77h5.93a9.89,9.89,0,0,0,0-19.77Z" transform="translate(4.07 4.44)"/><path class="cls-3" d="M2798.35,6510.52c12.75,0,12.75-19.77,0-19.77s-12.75,19.77,0,19.77Z" transform="translate(4.07 4.44)"/><path class="cls-3" d="M2490,6534.24c12.75,0,12.75-19.77,0-19.77s-12.75,19.77,0,19.77Z" transform="translate(4.07 4.44)"/><path class="cls-3" d="M2733.11,6757.64c25.5,0,25.5-39.54,0-39.54s-25.5,39.54,0,39.54Z" transform="translate(4.07 4.44)"/><path class="cls-3" d="M3089,7291.41c25.5,0,25.5-39.54,0-39.54s-25.49,39.54,0,39.54Z" transform="translate(4.07 4.44)"/><path class="cls-3" d="M2359.47,7214.31c25.5,0,25.5-39.54,0-39.54s-25.5,39.54,0,39.54Z" transform="translate(4.07 4.44)"/><path class="cls-3" d="M2110.38,6971.15c25.5,0,25.5-39.54,0-39.54s-25.5,39.54,0,39.54Z" transform="translate(4.07 4.44)"/><path class="cls-3" d="M1879.08,7190.58c25.5,0,25.5-39.54,0-39.54s-25.5,39.54,0,39.54Z" transform="translate(4.07 4.44)"/><path class="cls-3" d="M2223.06,7267.68c25.5,0,25.5-39.54,0-39.54s-25.49,39.54,0,39.54Z" transform="translate(4.07 4.44)"/><path class="cls-3" d="M1701.16,6870.32c25.49,0,25.49-39.54,0-39.54s-25.5,39.54,0,39.54Z" transform="translate(4.07 4.44)"/><path class="cls-3" d="M1179.25,7244c25.5,0,25.5-39.54,0-39.54s-25.5,39.54,0,39.54Z" transform="translate(4.07 4.44)"/><path class="cls-3" d="M1286,6591.58h1.66a19.77,19.77,0,1,0,0-39.54h-7.59a19.77,19.77,0,0,0,0,39.54h7.59a19.77,19.77,0,1,0,0-39.54H1286a19.77,19.77,0,0,0,0,39.54Z" transform="translate(4.07 4.44)"/><path class="cls-3" d="M1375,7202.44c25.49,0,25.49-39.54,0-39.54s-25.5,39.54,0,39.54Z" transform="translate(4.07 4.44)"/><path class="cls-3" d="M1800,6316.78v2.64c0,25.5,39.54,25.5,39.54,0v-2.64c0-25.49-39.54-25.49-39.54,0v2.64c0,25.5,39.54,25.5,39.54,0v-2.64c0-25.49-39.54-25.49-39.54,0Z" transform="translate(4.07 4.44)"/><path class="cls-3" d="M2015.49,6692.4c25.49,0,25.49-39.54,0-39.54s-25.5,39.54,0,39.54Z" transform="translate(4.07 4.44)"/><path class="cls-3" d="M1452.07,6710.19c25.49,0,25.49-39.54,0-39.54s-25.5,39.54,0,39.54Z" transform="translate(4.07 4.44)"/><path class="cls-3" d="M1647.78,7245.94h-5.93a19.77,19.77,0,0,0,0,39.54h5.93a19.77,19.77,0,1,0,0-39.54Z" transform="translate(4.07 4.44)"/><path class="cls-3" d="M758.17,7297.34c25.5,0,25.5-39.54,0-39.54s-25.5,39.54,0,39.54Z" transform="translate(4.07 4.44)"/><path class="cls-3" d="M210.42,7067.87l-5.93,5.93a19.77,19.77,0,1,0,28,28l5.93-5.93a19.77,19.77,0,0,0-28-28Z" transform="translate(4.07 4.44)"/><path class="cls-3" d="M959.81,6953.35c25.5,0,25.5-39.54,0-39.54s-25.5,39.54,0,39.54Z" transform="translate(4.07 4.44)"/><path class="cls-3" d="M200.68,7321.06c25.5,0,25.5-39.54,0-39.54s-25.5,39.54,0,39.54Z" transform="translate(4.07 4.44)"/><path class="cls-3" d="M568.38,7255.82c25.5,0,25.5-39.54,0-39.54s-25.49,39.54,0,39.54Z" transform="translate(4.07 4.44)"/><path class="cls-3" d="M598,7083.83c25.5,0,25.5-39.54,0-39.54s-25.5,39.54,0,39.54Z" transform="translate(4.07 4.44)"/><path class="cls-3" d="M2389.12,7030.45c25.5,0,25.5-39.54,0-39.54s-25.49,39.54,0,39.54Z" transform="translate(4.07 4.44)"/><path class="cls-3" d="M2691.59,7273.61c25.5,0,25.5-39.54,0-39.54s-25.49,39.54,0,39.54Z" transform="translate(4.07 4.44)"/><path class="cls-3" d="M2970.34,7238c25.49,0,25.49-39.54,0-39.54s-25.5,39.54,0,39.54Z" transform="translate(4.07 4.44)"/><path class="cls-3" d="M3128.49,7004.75v5.93a19.77,19.77,0,1,0,39.54,0v-5.93a19.77,19.77,0,1,0-39.54,0Z" transform="translate(4.07 4.44)"/><path class="cls-3" d="M3152.22,6627.17c0,.62-.07,1.22-.15,1.83.23-1.75.47-3.5.7-5.25a30.68,30.68,0,0,1-2,6.7c.66-1.57,1.33-3.14,2-4.72a19.58,19.58,0,0,1-2.27,4.2l3.1-4a4,4,0,0,1-.54.55l4-3.09a1.05,1.05,0,0,1-.31.17l4.72-2-.13,0h10.51l-.13,0,4.73,2-.12-.07,4,3.09-.1-.12,3.09,4c0-.06-.05-.12-.08-.17l2,4.72a2.78,2.78,0,0,1-.11-.5c.24,1.75.47,3.5.71,5.26a6.06,6.06,0,0,1,0-.73c-.27-10.77-8.79-19.77-19.77-19.77-10.58,0-20,9-19.77,19.77.22,8.93,5.51,18.84,15.08,20.68,10.37,2,18.38-2.14,23.89-10.68a44.68,44.68,0,0,0,6.5-21.86c.25-10.78-9.18-19.77-19.77-19.77a20,20,0,0,0-19.77,19.77Z" transform="translate(4.07 4.44)"/><path class="cls-3" d="M2395.06,6698.33c25.49,0,25.49-39.54,0-39.54s-25.5,39.54,0,39.54Z" transform="translate(4.07 4.44)"/><path class="cls-3" d="M2537.39,7172.79c25.5,0,25.5-39.54,0-39.54s-25.49,39.54,0,39.54Z" transform="translate(4.07 4.44)"/><path class="cls-3" d="M2229,6824.85h-5.93a19.77,19.77,0,0,0,0,39.54H2229a19.77,19.77,0,1,0,0-39.54Z" transform="translate(4.07 4.44)"/><path class="cls-3" d="M1861.29,6911.84c25.49,0,25.49-39.54,0-39.54s-25.5,39.54,0,39.54Z" transform="translate(4.07 4.44)"/><path class="cls-3" d="M1307.75,7034.41a29.07,29.07,0,0,1-.13,3.73c.23-1.76.47-3.51.7-5.26a4.54,4.54,0,0,1-.26,1l2-4.72a2.5,2.5,0,0,1-.21.35l3.09-4a1.44,1.44,0,0,1-.28.27q2-1.53,4-3.08a2,2,0,0,1-.35.21l4.72-2a5,5,0,0,1-1,.26l5.26-.7a29.07,29.07,0,0,1-3.73.13,19.77,19.77,0,0,0,0,39.54,29.07,29.07,0,0,0,3.73-.13c.77-.1,4.45-.25,6.21-1,4.87-2,5.22-1.89,9.23-5.43,5.44-4.8,6.53-12.36,6.53-19.16a19.77,19.77,0,0,0-39.54,0Z" transform="translate(4.07 4.44)"/><path class="cls-3" d="M1031,6757.64c25.5,0,25.5-39.54,0-39.54s-25.5,39.54,0,39.54Z" transform="translate(4.07 4.44)"/><path class="cls-3" d="M953.88,6302.94c-1.21,0-2.42,0-3.62.11-5.86.54-6.8,1-12.12,3.25-3.85,1.65-7.14,5.41-10.1,8.37a19.77,19.77,0,1,0,28,27.95c1.43-1.42,2.83-2.88,4.39-4.17l-4,3.09a9,9,0,0,1,2-1.23l-4.73,2a8.72,8.72,0,0,1,1.42-.37l-5.26.71a31.79,31.79,0,0,1,4-.15,19.78,19.78,0,0,0,0-39.55Z" transform="translate(4.07 4.44)"/><path class="cls-3" d="M1090.29,6034.09c25.5,0,25.5-39.54,0-39.54s-25.5,39.54,0,39.54Z" transform="translate(4.07 4.44)"/><path class="cls-3" d="M1612.2,7117.44c38.24,0,38.24-59.31,0-59.31s-38.25,59.31,0,59.31Z" transform="translate(4.07 4.44)"/><path class="cls-3" d="M906.44,7247.91c38.24,0,38.24-59.31,0-59.31s-38.25,59.31,0,59.31Z" transform="translate(4.07 4.44)"/><path class="cls-3" d="M1131.8,7099.64c38.25,0,38.25-59.31,0-59.31s-38.24,59.31,0,59.31Z" transform="translate(4.07 4.44)"/><path class="cls-3" d="M402.32,7028.47c38.25,0,38.25-59.31,0-59.31s-38.24,59.31,0,59.31Z" transform="translate(4.07 4.44)"/><path class="cls-3" d="M343,7259.77c38.24,0,38.24-59.31,0-59.31s-38.25,59.31,0,59.31Z" transform="translate(4.07 4.44)"/><path class="cls-3" d="M28.68,7259.77c38.25,0,38.25-59.31,0-59.31s-38.24,59.31,0,59.31Z" transform="translate(4.07 4.44)"/><path class="cls-3" d="M2513.67,7319.08c38.25,0,38.25-59.31,0-59.31s-38.25,59.31,0,59.31Z" transform="translate(4.07 4.44)"/><path class="cls-3" d="M2804.28,7159c38.25,0,38.25-59.31,0-59.31s-38.25,59.31,0,59.31Z" transform="translate(4.07 4.44)"/><path class="cls-3" d="M2893.24,6975.1h1.66a29.66,29.66,0,0,0,0-59.31h-7.59a29.66,29.66,0,1,0,0,59.31h7.59a29.66,29.66,0,0,0,0-59.31h-1.66a29.66,29.66,0,1,0,0,59.31Z" transform="translate(4.07 4.44)"/><path class="cls-3" d="M3100.82,7159c38.24,0,38.24-59.31,0-59.31s-38.25,59.31,0,59.31Z" transform="translate(4.07 4.44)"/><path class="cls-3" d="M3225.36,6898c38.25,0,38.25-59.31,0-59.31s-38.25,59.31,0,59.31Z" transform="translate(4.07 4.44)"/><path class="cls-3" d="M2673.8,6850.55c38.25,0,38.25-59.31,0-59.31s-38.25,59.31,0,59.31Z" transform="translate(4.07 4.44)"/><path class="cls-3" d="M2389.12,6939.51c38.25,0,38.25-59.31,0-59.31s-38.24,59.31,0,59.31Z" transform="translate(4.07 4.44)"/><path class="cls-3" d="M2270.51,6482.85c38.25,0,38.25-59.32,0-59.32s-38.25,59.32,0,59.32Z" transform="translate(4.07 4.44)"/><path class="cls-3" d="M1802,6589.6c38.25,0,38.25-59.31,0-59.31s-38.24,59.31,0,59.31Z" transform="translate(4.07 4.44)"/><path class="cls-3" d="M2715.32,6423.54c38.24,0,38.24-59.31,0-59.31s-38.25,59.31,0,59.31Z" transform="translate(4.07 4.44)"/><path class="cls-3" d="M2614.49,7060.11c25.5,0,25.5-39.54,0-39.54s-25.49,39.54,0,39.54Z" transform="translate(4.07 4.44)"/><path class="cls-3" d="M2899.17,6870.32c25.49,0,25.49-39.54,0-39.54s-25.5,39.54,0,39.54Z" transform="translate(4.07 4.44)"/><path class="cls-3" d="M3023.72,7072c25.49,0,25.49-39.54,0-39.54s-25.5,39.54,0,39.54Z" transform="translate(4.07 4.44)"/><path class="cls-3" d="M3047.44,6911.84c25.49,0,25.49-39.54,0-39.54s-25.5,39.54,0,39.54Z" transform="translate(4.07 4.44)"/><path class="cls-3" d="M3266.88,7107.55c25.49,0,25.49-39.54,0-39.54s-25.5,39.54,0,39.54Z" transform="translate(4.07 4.44)"/><path class="cls-3" d="M3023.72,6627.16c25.49,0,25.49-39.54,0-39.54s-25.5,39.54,0,39.54Z" transform="translate(4.07 4.44)"/><path class="cls-3" d="M2881.38,6314.81h-2.64c-25.5,0-25.5,39.54,0,39.54h2.64c25.5,0,25.5-39.54,0-39.54h-2.64c-25.5,0-25.5,39.54,0,39.54h2.64c25.5,0,25.5-39.54,0-39.54Z" transform="translate(4.07 4.44)"/><path class="cls-3" d="M3231.29,6627.16c25.5,0,25.5-39.54,0-39.54s-25.5,39.54,0,39.54Z" transform="translate(4.07 4.44)"/><path class="cls-3" d="M3219.43,6277.25c25.5,0,25.5-39.54,0-39.54s-25.5,39.54,0,39.54Z" transform="translate(4.07 4.44)"/><path class="cls-3" d="M3237.22,5923.38h-5.93a19.77,19.77,0,0,0,0,39.54h5.93a19.77,19.77,0,0,0,0-39.54Z" transform="translate(4.07 4.44)"/><path class="cls-3" d="M2899.17,5992.57c25.49,0,25.49-39.54,0-39.54s-25.5,39.54,0,39.54Z" transform="translate(4.07 4.44)"/><path class="cls-3" d="M2851.72,6200.15c25.5,0,25.5-39.54,0-39.54s-25.49,39.54,0,39.54Z" transform="translate(4.07 4.44)"/><path class="cls-3" d="M3083,5980.71h7.59a19.77,19.77,0,1,0,0-39.54H3089a19.77,19.77,0,1,0,0,39.54h1.66a19.77,19.77,0,1,0,0-39.54H3083a19.77,19.77,0,0,0,0,39.54Z" transform="translate(4.07 4.44)"/><path class="cls-3" d="M2620.42,5429.15h5.93a19.77,19.77,0,1,0,0-39.54h-5.93a19.77,19.77,0,1,0,0,39.54Z" transform="translate(4.07 4.44)"/><path class="cls-3" d="M3017.78,5435.08c25.5,0,25.5-39.54,0-39.54s-25.49,39.54,0,39.54Z" transform="translate(4.07 4.44)"/><path class="cls-3" d="M3041.51,5779.06c25.5,0,25.5-39.54,0-39.54s-25.5,39.54,0,39.54Z" transform="translate(4.07 4.44)"/><path class="cls-3" d="M2768.69,5624.86c25.5,0,25.5-39.54,0-39.54s-25.49,39.54,0,39.54Z" transform="translate(4.07 4.44)"/><path class="cls-3" d="M2584.84,6129c25.49,0,25.49-39.54,0-39.54s-25.5,39.54,0,39.54Z" transform="translate(4.07 4.44)"/><path class="cls-3" d="M2383.19,6413.65c25.5,0,25.5-39.54,0-39.54s-25.49,39.54,0,39.54Z" transform="translate(4.07 4.44)"/><path class="cls-3" d="M2341.68,6223.87c25.5,0,25.5-39.54,0-39.54s-25.5,39.54,0,39.54Z" transform="translate(4.07 4.44)"/><path class="cls-3" d="M2590.77,6561.92c25.5,0,25.5-39.54,0-39.54s-25.5,39.54,0,39.54Z" transform="translate(4.07 4.44)"/><path class="cls-3" d="M2499.83,6826.83v3.95c0,25.5,39.54,25.5,39.54,0v-3.95c0-25.5-39.54-25.5-39.54,0v3.95c0,25.5,39.54,25.5,39.54,0v-3.95c0-25.5-39.54-25.5-39.54,0Z" transform="translate(4.07 4.44)"/><path class="cls-3" d="M2454.36,7119.41c25.5,0,25.5-39.54,0-39.54s-25.49,39.54,0,39.54Z" transform="translate(4.07 4.44)"/><path class="cls-3" d="M2175.62,7143.14c25.5,0,25.5-39.54,0-39.54s-25.5,39.54,0,39.54Z" transform="translate(4.07 4.44)"/><path class="cls-3" d="M2270.51,6977.08c25.5,0,25.5-39.54,0-39.54s-25.49,39.54,0,39.54Z" transform="translate(4.07 4.44)"/><path class="cls-3" d="M2045.14,6852.53c25.5,0,25.5-39.54,0-39.54s-25.5,39.54,0,39.54Z" transform="translate(4.07 4.44)"/><path class="cls-3" d="M1926.53,7060.11c25.49,0,25.49-39.54,0-39.54s-25.5,39.54,0,39.54Z" transform="translate(4.07 4.44)"/><path class="cls-3" d="M2057,7208.38c25.5,0,25.5-39.54,0-39.54s-25.5,39.54,0,39.54Z" transform="translate(4.07 4.44)"/><path class="cls-3" d="M1398.69,7285.48c25.5,0,25.5-39.54,0-39.54s-25.5,39.54,0,39.54Z" transform="translate(4.07 4.44)"/><path class="cls-3" d="M1766.4,7091.74h-5.94a19.77,19.77,0,0,0,0,39.54h5.94a19.77,19.77,0,0,0,0-39.54Z" transform="translate(4.07 4.44)"/><path class="cls-3" d="M1499.51,7184.65c25.5,0,25.5-39.54,0-39.54s-25.5,39.54,0,39.54Z" transform="translate(4.07 4.44)"/><path class="cls-3" d="M1463.93,6929.63c25.5,0,25.5-39.54,0-39.54s-25.5,39.54,0,39.54Z" transform="translate(4.07 4.44)"/><path class="cls-3" d="M1641.85,6988.94c25.5,0,25.5-39.54,0-39.54s-25.5,39.54,0,39.54Z" transform="translate(4.07 4.44)"/><path class="cls-3" d="M1248.3,6842.5l-5.93,5.94a19.77,19.77,0,0,0,28,28l5.93-5.93a19.77,19.77,0,1,0-28-28Z" transform="translate(4.07 4.44)"/><path class="cls-3" d="M1054.7,7172.79c25.5,0,25.5-39.54,0-39.54s-25.49,39.54,0,39.54Z" transform="translate(4.07 4.44)"/><path class="cls-3" d="M987.49,7259.77v5.94a19.77,19.77,0,0,0,39.54,0v-5.94a19.77,19.77,0,0,0-39.54,0Z" transform="translate(4.07 4.44)"/><path class="cls-3" d="M756.19,7093.71v5.93a19.77,19.77,0,0,0,39.54,0v-5.93a19.77,19.77,0,1,0-39.54,0Z" transform="translate(4.07 4.44)"/><path class="cls-3" d="M657.35,7208.38c25.49,0,25.49-39.54,0-39.54s-25.5,39.54,0,39.54Z" transform="translate(4.07 4.44)"/><path class="cls-3" d="M443.84,7293.38h-5.93a19.77,19.77,0,0,0,0,39.54h5.93a19.77,19.77,0,1,0,0-39.54Z" transform="translate(4.07 4.44)"/><path class="cls-3" d="M432,7202.44c25.5,0,25.5-39.54,0-39.54s-25.5,39.54,0,39.54Z" transform="translate(4.07 4.44)"/><path class="cls-3" d="M236.26,7226.17c25.5,0,25.5-39.54,0-39.54s-25.5,39.54,0,39.54Z" transform="translate(4.07 4.44)"/><path class="cls-3" d="M40.55,7008.7H34.62a19.78,19.78,0,0,0,0,39.55h5.93a19.78,19.78,0,0,0,0-39.55Z" transform="translate(4.07 4.44)"/><path class="cls-3" d="M283.71,6811c25.5,0,25.5-39.54,0-39.54s-25.5,39.54,0,39.54Z" transform="translate(4.07 4.44)"/><path class="cls-3" d="M532.8,6781.36c25.5,0,25.5-39.54,0-39.54s-25.5,39.54,0,39.54Z" transform="translate(4.07 4.44)"/><path class="cls-3" d="M692.93,6965.21c25.5,0,25.5-39.54,0-39.54s-25.5,39.54,0,39.54Z" transform="translate(4.07 4.44)"/><path class="cls-3" d="M888.64,7048.25h5.94a19.78,19.78,0,0,0,0-39.55h-5.94a19.78,19.78,0,0,0,0,39.55Z" transform="translate(4.07 4.44)"/><path class="cls-3" d="M870.85,6817c25.5,0,25.5-39.54,0-39.54s-25.5,39.54,0,39.54Z" transform="translate(4.07 4.44)"/><path class="cls-3" d="M1220.77,6988.94c25.49,0,25.49-39.54,0-39.54s-25.5,39.54,0,39.54Z" transform="translate(4.07 4.44)"/><path class="cls-3" d="M1060.64,6757.64c25.49,0,25.49-39.54,0-39.54s-25.5,39.54,0,39.54Z" transform="translate(4.07 4.44)"/><path class="cls-3" d="M206.61,6692.4c25.5,0,25.5-39.54,0-39.54s-25.5,39.54,0,39.54Z" transform="translate(4.07 4.44)"/><path class="cls-3" d="M396.39,6336.55c25.5,0,25.5-39.54,0-39.54s-25.5,39.54,0,39.54Z" transform="translate(4.07 4.44)"/><path class="cls-3" d="M509.08,6585.65c25.5,0,25.5-39.54,0-39.54s-25.5,39.54,0,39.54Z" transform="translate(4.07 4.44)"/><path class="cls-3" d="M325.22,6544.13c25.5,0,25.5-39.54,0-39.54s-25.5,39.54,0,39.54Z" transform="translate(4.07 4.44)"/><path class="cls-3" d="M748.19,6452.47a40.18,40.18,0,0,1,6.28,3.74l-4-3.09a8.32,8.32,0,0,1,1,.95l-3.09-4a2.5,2.5,0,0,1,.25.41c-.67-1.58-1.33-3.15-2-4.72,0,0,0,.08,0,.12-.24-1.75-.47-3.51-.71-5.26a.49.49,0,0,0,0,.12c.23-1.76.47-3.5.71-5.26a.43.43,0,0,0,0,.11c.66-1.58,1.32-3.15,2-4.73a.93.93,0,0,1,0,.1l3.09-4-.08.09,4-3.09a.77.77,0,0,1-.25.14l4.72-2a1.72,1.72,0,0,1-.39.1l5.26-.71a8.48,8.48,0,0,1-.87.06,20,20,0,0,0-19.77,19.77c0,10.61,9,20,19.77,19.77a24.42,24.42,0,0,0,11.24-2.86c4.33-2,8.61-7.53,9.48-12.25,1-5.53.86-10.77-2.18-15.73a19.7,19.7,0,0,0-4.22-5.1,58.57,58.57,0,0,0-10.27-6.83c-4.87-2.44-9.86-3.47-15.24-2a19.9,19.9,0,0,0-11.81,9.08c-5.18,8.85-2.54,22.22,7.09,27.05Z" transform="translate(4.07 4.44)"/><path class="cls-3" d="M443.84,6947.42c25.5,0,25.5-39.54,0-39.54s-25.5,39.54,0,39.54Z" transform="translate(4.07 4.44)"/><path class="cls-3" d="M76.13,6888.11c25.5,0,25.5-39.54,0-39.54s-25.5,39.54,0,39.54Z" transform="translate(4.07 4.44)"/><path class="cls-3" d="M34.62,6558H28.68a19.77,19.77,0,1,0,0,39.54h5.94a19.77,19.77,0,0,0,0-39.54Z" transform="translate(4.07 4.44)"/><path class="cls-3" d="M459.51,5858l-4.45,4.45c-18,18,9.92,46,28,28l4.45-4.45c18-18.05-9.91-46-28-28l-4.45,4.45c-18,18,9.92,46,28,28l4.45-4.45c18-18.05-9.91-46-28-28Z" transform="translate(4.07 4.44)"/><path class="cls-3" d="M218.47,6295c25.5,0,25.5-39.54,0-39.54s-25.5,39.54,0,39.54Z" transform="translate(4.07 4.44)"/><path class="cls-3" d="M449.77,6140.84c25.5,0,25.5-39.54,0-39.54s-25.5,39.54,0,39.54Z" transform="translate(4.07 4.44)"/><path class="cls-3" d="M93.92,5792.9H88a19.77,19.77,0,0,0,0,39.54h5.93a19.77,19.77,0,0,0,0-39.54Z" transform="translate(4.07 4.44)"/><path class="cls-3" d="M1072.5,5235.41c-1.11,0-2.23,0-3.34-.09l5.26.7a3.91,3.91,0,0,1-.68-.14l4.72,2a1.12,1.12,0,0,1-.28-.16l4,3.09-.09-.1,3.09,4a.37.37,0,0,1,0-.11l2.7,10a.45.45,0,0,1,0-.28c-.24,1.75-.47,3.5-.71,5.26l0-.17-2,4.72a4.45,4.45,0,0,1,.56-.87l-3.1,4c1.17-1.42,2.53-2.7,3.83-4a19.77,19.77,0,0,0-28-28c-1.3,1.3-2.66,2.58-3.83,4-3.44,4.2-7.17,9.45-6.39,15.3a19.67,19.67,0,0,0,2.7,10,18.16,18.16,0,0,0,3.23,4.21c2.25,2.57,6,4.32,9.19,5.3a31.22,31.22,0,0,0,9.08.89,19.77,19.77,0,0,0,0-39.54Z" transform="translate(4.07 4.44)"/><path class="cls-3" d="M1315.66,5808.72h5.93a19.77,19.77,0,1,0,0-39.54h-5.93a19.77,19.77,0,1,0,0,39.54Z" transform="translate(4.07 4.44)"/><path class="cls-3" d="M930.16,5636.73c25.5,0,25.5-39.55,0-39.55s-25.5,39.55,0,39.55Z" transform="translate(4.07 4.44)"/><path class="cls-3" d="M1416.48,6188.29h5.93a19.78,19.78,0,0,0,0-39.55h-5.93a19.78,19.78,0,0,0,0,39.55Z" transform="translate(4.07 4.44)"/><path class="cls-3" d="M1748.6,6194.22c25.5,0,25.5-39.54,0-39.54s-25.49,39.54,0,39.54Z" transform="translate(4.07 4.44)"/><path class="cls-3" d="M1881.06,5842.32v-5.93a19.77,19.77,0,1,0-39.54,0v5.93a19.77,19.77,0,0,0,39.54,0Z" transform="translate(4.07 4.44)"/><path class="cls-3" d="M1974,6099.32c25.5,0,25.5-39.54,0-39.54s-25.5,39.54,0,39.54Z" transform="translate(4.07 4.44)"/><path class="cls-3" d="M2312,5939.19H2318a19.77,19.77,0,0,0,0-39.54H2312a19.77,19.77,0,0,0,0,39.54Z" transform="translate(4.07 4.44)"/><path class="cls-3" d="M2434.59,6138.86v5.93a19.77,19.77,0,0,0,39.54,0v-5.93a19.77,19.77,0,0,0-39.54,0Z" transform="translate(4.07 4.44)"/><path class="cls-3" d="M2602.63,5856.16c25.5,0,25.5-39.54,0-39.54s-25.5,39.54,0,39.54Z" transform="translate(4.07 4.44)"/><path class="cls-3" d="M1363.1,5458.8c25.5,0,25.5-39.54,0-39.54s-25.5,39.54,0,39.54Z" transform="translate(4.07 4.44)"/><path class="cls-3" d="M485.35,5132.61c25.5,0,25.5-39.54,0-39.54s-25.5,39.54,0,39.54Z" transform="translate(4.07 4.44)"/><path class="cls-3" d="M2045.14,5150.4c25.5,0,25.5-39.54,0-39.54s-25.5,39.54,0,39.54Z" transform="translate(4.07 4.44)"/><path class="cls-3" d="M2436.57,5618.93c25.5,0,25.5-39.54,0-39.54s-25.5,39.54,0,39.54Z" transform="translate(4.07 4.44)"/><path class="cls-3" d="M1924.55,5456.82a5.83,5.83,0,0,1-.06.73c.23-1.75.47-3.5.7-5.26a8.33,8.33,0,0,1-.54,2c.66-1.58,1.32-3.15,2-4.73a8.12,8.12,0,0,1-.63,1.11l3.09-4a6.07,6.07,0,0,1-1,1l4-3.09a7.56,7.56,0,0,1-1,.6l4.72-2a7.31,7.31,0,0,1-1.7.48l5.25-.7a8.94,8.94,0,0,1-1,.06c-10.77.34-19.77,8.74-19.77,19.78,0,10.52,9,20.11,19.77,19.77,9.2-.29,17.3-4.51,22.11-12.48a27.31,27.31,0,0,0,3.59-13.23c.12-10.77-9.08-19.77-19.77-19.77a20,20,0,0,0-19.77,19.77Z" transform="translate(4.07 4.44)"/></g><g class="cls-2"><path class="cls-3" d="M625.12,2835.79l5.93-5.93a9.89,9.89,0,1,0-14-14l-5.93,5.93a9.89,9.89,0,1,0,14,14Z" transform="translate(4.07 4.44)"/><path class="cls-3" d="M639.88,3077.89c0-.91,0-1.83,0-2.75s.43-2.25-.22,1.38a3.79,3.79,0,0,1,.14-.48,7.94,7.94,0,0,1-2.12,3.65L636,3081q-3.1,1.19-1.75.75c1.35-.43-3,.32-1.47.17,1-.1,2.07-.06,3.1-.06a9.89,9.89,0,1,0,0-19.77c-4.58,0-8.59.47-12.17,3.64s-3.64,8-3.64,12.17a9.89,9.89,0,1,0,19.77,0Z" transform="translate(4.07 4.44)"/><path class="cls-3" d="M404.62,2985c-12.75,0-12.75,19.77,0,19.77s12.75-19.77,0-19.77Z" transform="translate(4.07 4.44)"/><path class="cls-3" d="M244.49,3242h5.93a9.89,9.89,0,1,0,0-19.77h-5.93a9.89,9.89,0,0,0,0,19.77Z" transform="translate(4.07 4.44)"/><path class="cls-3" d="M487.65,3506.88c-12.75,0-12.75,19.77,0,19.77s12.75-19.77,0-19.77Z" transform="translate(4.07 4.44)"/><path class="cls-3" d="M796.05,3483.16c-12.75,0-12.75,19.77,0,19.77s12.75-19.77,0-19.77Z" transform="translate(4.07 4.44)"/><path class="cls-3" d="M552.89,3259.77c-25.5,0-25.5,39.54,0,39.54s25.5-39.54,0-39.54Z" transform="translate(4.07 4.44)"/><path class="cls-3" d="M197.05,2726c-25.5,0-25.5,39.54,0,39.54s25.49-39.54,0-39.54Z" transform="translate(4.07 4.44)"/><path class="cls-3" d="M926.53,2803.1c-25.5,0-25.5,39.54,0,39.54s25.5-39.54,0-39.54Z" transform="translate(4.07 4.44)"/><path class="cls-3" d="M1175.62,3046.26c-25.5,0-25.5,39.54,0,39.54s25.5-39.54,0-39.54Z" transform="translate(4.07 4.44)"/><path class="cls-3" d="M1406.92,2826.82c-25.5,0-25.5,39.54,0,39.54s25.5-39.54,0-39.54Z" transform="translate(4.07 4.44)"/><path class="cls-3" d="M1062.94,2749.72c-25.5,0-25.5,39.55,0,39.55s25.49-39.55,0-39.55Z" transform="translate(4.07 4.44)"/><path class="cls-3" d="M1584.84,3147.09c-25.49,0-25.49,39.54,0,39.54s25.5-39.54,0-39.54Z" transform="translate(4.07 4.44)"/><path class="cls-3" d="M2106.75,2773.45c-25.5,0-25.5,39.54,0,39.54s25.5-39.54,0-39.54Z" transform="translate(4.07 4.44)"/><path class="cls-3" d="M2000,3425.83h-1.66a19.77,19.77,0,1,0,0,39.54h7.59a19.77,19.77,0,1,0,0-39.54h-7.59a19.77,19.77,0,1,0,0,39.54H2000a19.77,19.77,0,1,0,0-39.54Z" transform="translate(4.07 4.44)"/><path class="cls-3" d="M1911,2815c-25.49,0-25.49,39.54,0,39.54s25.5-39.54,0-39.54Z" transform="translate(4.07 4.44)"/><path class="cls-3" d="M1486,3700.62V3698c0-25.5-39.54-25.5-39.54,0v2.63c0,25.5,39.54,25.5,39.54,0V3698c0-25.5-39.54-25.5-39.54,0v2.63c0,25.5,39.54,25.5,39.54,0Z" transform="translate(4.07 4.44)"/><path class="cls-3" d="M1270.51,3325c-25.49,0-25.49,39.54,0,39.54s25.5-39.54,0-39.54Z" transform="translate(4.07 4.44)"/><path class="cls-3" d="M1833.93,3307.22c-25.49,0-25.49,39.54,0,39.54s25.5-39.54,0-39.54Z" transform="translate(4.07 4.44)"/><path class="cls-3" d="M1638.22,2771.47h5.93a19.77,19.77,0,0,0,0-39.54h-5.93a19.77,19.77,0,0,0,0,39.54Z" transform="translate(4.07 4.44)"/><path class="cls-3" d="M2527.83,2720.07c-25.5,0-25.5,39.54,0,39.54s25.5-39.54,0-39.54Z" transform="translate(4.07 4.44)"/><path class="cls-3" d="M3075.58,2949.53l5.93-5.93a19.77,19.77,0,1,0-28-27.95l-5.93,5.93a19.77,19.77,0,1,0,28,28Z" transform="translate(4.07 4.44)"/><path class="cls-3" d="M2326.19,3064.06c-25.5,0-25.5,39.54,0,39.54s25.5-39.54,0-39.54Z" transform="translate(4.07 4.44)"/><path class="cls-3" d="M3085.32,2696.35c-25.5,0-25.5,39.54,0,39.54s25.5-39.54,0-39.54Z" transform="translate(4.07 4.44)"/><path class="cls-3" d="M2717.62,2761.59c-25.5,0-25.5,39.54,0,39.54s25.49-39.54,0-39.54Z" transform="translate(4.07 4.44)"/><path class="cls-3" d="M2688,2933.58c-25.5,0-25.5,39.54,0,39.54s25.5-39.54,0-39.54Z" transform="translate(4.07 4.44)"/><path class="cls-3" d="M896.88,2987c-25.5,0-25.5,39.54,0,39.54s25.49-39.54,0-39.54Z" transform="translate(4.07 4.44)"/><path class="cls-3" d="M594.41,2743.79c-25.5,0-25.5,39.54,0,39.54s25.49-39.54,0-39.54Z" transform="translate(4.07 4.44)"/><path class="cls-3" d="M315.66,2779.38c-25.49,0-25.49,39.54,0,39.54s25.5-39.54,0-39.54Z" transform="translate(4.07 4.44)"/><path class="cls-3" d="M157.51,3012.66v-5.93a19.77,19.77,0,0,0-39.54,0v5.93a19.77,19.77,0,0,0,39.54,0Z" transform="translate(4.07 4.44)"/><path class="cls-3" d="M133.78,3390.24c0-.62.07-1.22.15-1.83-.23,1.74-.47,3.5-.7,5.25a30.93,30.93,0,0,1,2-6.71c-.66,1.58-1.33,3.15-2,4.73a19.58,19.58,0,0,1,2.27-4.2c-1,1.33-2.06,2.67-3.1,4a4.68,4.68,0,0,1,.54-.55l-4,3.1a1.05,1.05,0,0,1,.31-.17l-4.72,2,.13,0H114.12l.13,0-4.73-2,.12.07-4-3.09.1.12-3.09-4,.08.17c-.66-1.57-1.33-3.15-2-4.73a3.1,3.1,0,0,1,.11.51c-.24-1.75-.47-3.51-.71-5.26a6,6,0,0,1,0,.73c.27,10.77,8.79,19.77,19.77,19.77,10.58,0,20-9,19.77-19.77-.22-8.93-5.51-18.84-15.08-20.68-10.37-2-18.38,2.14-23.89,10.67a44.69,44.69,0,0,0-6.5,21.87C94,3401,103.42,3410,114,3410a20,20,0,0,0,19.77-19.77Z" transform="translate(4.07 4.44)"/><path class="cls-3" d="M890.94,3319.08c-25.49,0-25.49,39.54,0,39.54s25.5-39.54,0-39.54Z" transform="translate(4.07 4.44)"/><path class="cls-3" d="M748.61,2844.62c-25.5,0-25.5,39.54,0,39.54s25.49-39.54,0-39.54Z" transform="translate(4.07 4.44)"/><path class="cls-3" d="M1057,3192.56h5.93a19.77,19.77,0,0,0,0-39.54H1057a19.77,19.77,0,0,0,0,39.54Z" transform="translate(4.07 4.44)"/><path class="cls-3" d="M1424.71,3105.57c-25.49,0-25.49,39.54,0,39.54s25.5-39.54,0-39.54Z" transform="translate(4.07 4.44)"/><path class="cls-3" d="M1978.25,2983a29.07,29.07,0,0,1,.13-3.73c-.23,1.75-.47,3.51-.7,5.26a4.39,4.39,0,0,1,.26-1l-2,4.72a2,2,0,0,1,.21-.35l-3.09,4a1.48,1.48,0,0,1,.28-.28l-4,3.09a2,2,0,0,1,.35-.21l-4.72,2a4.39,4.39,0,0,1,1-.26l-5.26.7a29.07,29.07,0,0,1,3.73-.13,19.77,19.77,0,1,0,0-39.54,29.07,29.07,0,0,0-3.73.13c-.77.1-4.45.25-6.21,1-4.87,2-5.22,1.89-9.23,5.43-5.44,4.81-6.53,12.37-6.53,19.17a19.77,19.77,0,1,0,39.54,0Z" transform="translate(4.07 4.44)"/><path class="cls-3" d="M2255,3259.77c-25.5,0-25.5,39.54,0,39.54s25.5-39.54,0-39.54Z" transform="translate(4.07 4.44)"/><path class="cls-3" d="M2332.12,3714.46c1.21,0,2.42,0,3.62-.1,5.86-.54,6.8-1,12.12-3.26,3.85-1.64,7.14-5.4,10.1-8.36a19.77,19.77,0,0,0-28-28c-1.43,1.43-2.83,2.89-4.39,4.18l4-3.1a9,9,0,0,1-2,1.24l4.73-2a8.69,8.69,0,0,1-1.42.36l5.26-.7a31.79,31.79,0,0,1-4,.15,19.77,19.77,0,1,0,0,39.54Z" transform="translate(4.07 4.44)"/><path class="cls-3" d="M2195.71,3983.32c-25.5,0-25.5,39.54,0,39.54s25.5-39.54,0-39.54Z" transform="translate(4.07 4.44)"/><path class="cls-3" d="M1673.8,2900c-38.24,0-38.24,59.31,0,59.31s38.25-59.31,0-59.31Z" transform="translate(4.07 4.44)"/><path class="cls-3" d="M2379.56,2769.5c-38.24,0-38.24,59.31,0,59.31s38.25-59.31,0-59.31Z" transform="translate(4.07 4.44)"/><path class="cls-3" d="M2154.2,2917.76c-38.25,0-38.25,59.31,0,59.31s38.24-59.31,0-59.31Z" transform="translate(4.07 4.44)"/><path class="cls-3" d="M2883.68,2988.93c-38.25,0-38.25,59.31,0,59.31s38.24-59.31,0-59.31Z" transform="translate(4.07 4.44)"/><path class="cls-3" d="M2943,2757.63c-38.24,0-38.24,59.31,0,59.31s38.25-59.31,0-59.31Z" transform="translate(4.07 4.44)"/><path class="cls-3" d="M3257.32,2757.63c-38.25,0-38.25,59.31,0,59.31s38.24-59.31,0-59.31Z" transform="translate(4.07 4.44)"/><path class="cls-3" d="M772.33,2698.33c-38.25,0-38.25,59.31,0,59.31s38.25-59.31,0-59.31Z" transform="translate(4.07 4.44)"/><path class="cls-3" d="M481.72,2858.45c-38.25,0-38.25,59.31,0,59.31s38.25-59.31,0-59.31Z" transform="translate(4.07 4.44)"/><path class="cls-3" d="M392.76,3042.31H391.1a29.66,29.66,0,0,0,0,59.31h7.59a29.66,29.66,0,1,0,0-59.31H391.1a29.66,29.66,0,0,0,0,59.31h1.66a29.66,29.66,0,1,0,0-59.31Z" transform="translate(4.07 4.44)"/><path class="cls-3" d="M185.18,2858.45c-38.24,0-38.24,59.31,0,59.31s38.25-59.31,0-59.31Z" transform="translate(4.07 4.44)"/><path class="cls-3" d="M60.64,3119.41c-38.25,0-38.25,59.31,0,59.31s38.25-59.31,0-59.31Z" transform="translate(4.07 4.44)"/><path class="cls-3" d="M612.2,3166.85c-38.25,0-38.25,59.31,0,59.31s38.25-59.31,0-59.31Z" transform="translate(4.07 4.44)"/><path class="cls-3" d="M896.88,3077.89c-38.25,0-38.25,59.31,0,59.31s38.24-59.31,0-59.31Z" transform="translate(4.07 4.44)"/><path class="cls-3" d="M1015.49,3534.56c-38.25,0-38.25,59.31,0,59.31s38.25-59.31,0-59.31Z" transform="translate(4.07 4.44)"/><path class="cls-3" d="M1484,3427.81c-38.25,0-38.25,59.31,0,59.31s38.24-59.31,0-59.31Z" transform="translate(4.07 4.44)"/><path class="cls-3" d="M570.68,3593.87c-38.24,0-38.24,59.31,0,59.31s38.25-59.31,0-59.31Z" transform="translate(4.07 4.44)"/><path class="cls-3" d="M671.51,2957.3c-25.5,0-25.5,39.54,0,39.54s25.49-39.54,0-39.54Z" transform="translate(4.07 4.44)"/><path class="cls-3" d="M386.83,3147.09c-25.49,0-25.49,39.54,0,39.54s25.5-39.54,0-39.54Z" transform="translate(4.07 4.44)"/><path class="cls-3" d="M262.28,2945.44c-25.49,0-25.49,39.54,0,39.54s25.5-39.54,0-39.54Z" transform="translate(4.07 4.44)"/><path class="cls-3" d="M238.56,3105.57c-25.49,0-25.49,39.54,0,39.54s25.5-39.54,0-39.54Z" transform="translate(4.07 4.44)"/><path class="cls-3" d="M19.12,2909.86c-25.49,0-25.49,39.54,0,39.54s25.5-39.54,0-39.54Z" transform="translate(4.07 4.44)"/><path class="cls-3" d="M262.28,3390.25c-25.49,0-25.49,39.54,0,39.54s25.5-39.54,0-39.54Z" transform="translate(4.07 4.44)"/><path class="cls-3" d="M404.62,3702.6h2.64c25.5,0,25.5-39.54,0-39.54h-2.64c-25.5,0-25.5,39.54,0,39.54h2.64c25.5,0,25.5-39.54,0-39.54h-2.64c-25.5,0-25.5,39.54,0,39.54Z" transform="translate(4.07 4.44)"/><path class="cls-3" d="M54.71,3390.25c-25.5,0-25.5,39.54,0,39.54s25.5-39.54,0-39.54Z" transform="translate(4.07 4.44)"/><path class="cls-3" d="M66.57,3740.16c-25.5,0-25.5,39.54,0,39.54s25.5-39.54,0-39.54Z" transform="translate(4.07 4.44)"/><path class="cls-3" d="M48.78,4094h5.93a19.77,19.77,0,0,0,0-39.54H48.78a19.77,19.77,0,1,0,0,39.54Z" transform="translate(4.07 4.44)"/><path class="cls-3" d="M386.83,4024.84c-25.49,0-25.49,39.54,0,39.54s25.5-39.54,0-39.54Z" transform="translate(4.07 4.44)"/><path class="cls-3" d="M434.28,3817.26c-25.5,0-25.5,39.54,0,39.54s25.49-39.54,0-39.54Z" transform="translate(4.07 4.44)"/><path class="cls-3" d="M203,4036.7h-7.59a19.77,19.77,0,1,0,0,39.54h1.66a19.77,19.77,0,1,0,0-39.54h-1.66a19.77,19.77,0,1,0,0,39.54H203a19.77,19.77,0,1,0,0-39.54Z" transform="translate(4.07 4.44)"/><path class="cls-3" d="M665.58,4588.26h-5.93a19.77,19.77,0,1,0,0,39.54h5.93a19.77,19.77,0,1,0,0-39.54Z" transform="translate(4.07 4.44)"/><path class="cls-3" d="M268.22,4582.33c-25.5,0-25.5,39.54,0,39.54s25.49-39.54,0-39.54Z" transform="translate(4.07 4.44)"/><path class="cls-3" d="M244.49,4238.34c-25.5,0-25.5,39.54,0,39.54s25.5-39.54,0-39.54Z" transform="translate(4.07 4.44)"/><path class="cls-3" d="M517.31,4392.54c-25.5,0-25.5,39.54,0,39.54s25.49-39.54,0-39.54Z" transform="translate(4.07 4.44)"/><path class="cls-3" d="M701.16,3888.43c-25.49,0-25.49,39.54,0,39.54s25.5-39.54,0-39.54Z" transform="translate(4.07 4.44)"/><path class="cls-3" d="M902.81,3603.75c-25.5,0-25.5,39.54,0,39.54s25.49-39.54,0-39.54Z" transform="translate(4.07 4.44)"/><path class="cls-3" d="M944.32,3793.54c-25.5,0-25.5,39.54,0,39.54s25.5-39.54,0-39.54Z" transform="translate(4.07 4.44)"/><path class="cls-3" d="M695.23,3455.48c-25.5,0-25.5,39.55,0,39.55s25.5-39.55,0-39.55Z" transform="translate(4.07 4.44)"/><path class="cls-3" d="M786.17,3190.58v-3.95c0-25.5-39.54-25.5-39.54,0v3.95c0,25.5,39.54,25.5,39.54,0v-3.95c0-25.5-39.54-25.5-39.54,0v3.95c0,25.5,39.54,25.5,39.54,0Z" transform="translate(4.07 4.44)"/><path class="cls-3" d="M831.64,2898c-25.5,0-25.5,39.54,0,39.54s25.49-39.54,0-39.54Z" transform="translate(4.07 4.44)"/><path class="cls-3" d="M1110.38,2874.27c-25.5,0-25.5,39.54,0,39.54s25.5-39.54,0-39.54Z" transform="translate(4.07 4.44)"/><path class="cls-3" d="M1015.49,3040.33c-25.5,0-25.5,39.54,0,39.54s25.49-39.54,0-39.54Z" transform="translate(4.07 4.44)"/><path class="cls-3" d="M1240.86,3164.88c-25.5,0-25.5,39.54,0,39.54s25.5-39.54,0-39.54Z" transform="translate(4.07 4.44)"/><path class="cls-3" d="M1359.47,2957.3c-25.49,0-25.49,39.54,0,39.54s25.5-39.54,0-39.54Z" transform="translate(4.07 4.44)"/><path class="cls-3" d="M1229,2809c-25.5,0-25.5,39.54,0,39.54s25.5-39.54,0-39.54Z" transform="translate(4.07 4.44)"/><path class="cls-3" d="M1887.31,2731.93c-25.5,0-25.5,39.54,0,39.54s25.5-39.54,0-39.54Z" transform="translate(4.07 4.44)"/><path class="cls-3" d="M1519.6,2925.67h5.94a19.77,19.77,0,1,0,0-39.54h-5.94a19.77,19.77,0,0,0,0,39.54Z" transform="translate(4.07 4.44)"/><path class="cls-3" d="M1786.49,2832.76c-25.5,0-25.5,39.54,0,39.54s25.5-39.54,0-39.54Z" transform="translate(4.07 4.44)"/><path class="cls-3" d="M1822.07,3087.78c-25.5,0-25.5,39.54,0,39.54s25.5-39.54,0-39.54Z" transform="translate(4.07 4.44)"/><path class="cls-3" d="M1644.15,3028.47c-25.5,0-25.5,39.54,0,39.54s25.5-39.54,0-39.54Z" transform="translate(4.07 4.44)"/><path class="cls-3" d="M2037.7,3174.9l5.93-5.93a19.77,19.77,0,1,0-28-27.95l-5.93,5.93a19.77,19.77,0,1,0,28,28Z" transform="translate(4.07 4.44)"/><path class="cls-3" d="M2231.3,2844.62c-25.5,0-25.5,39.54,0,39.54s25.49-39.54,0-39.54Z" transform="translate(4.07 4.44)"/><path class="cls-3" d="M2298.51,2757.63v-5.93a19.77,19.77,0,0,0-39.54,0v5.93a19.77,19.77,0,0,0,39.54,0Z" transform="translate(4.07 4.44)"/><path class="cls-3" d="M2529.81,2923.69v-5.93a19.77,19.77,0,0,0-39.54,0v5.93a19.77,19.77,0,0,0,39.54,0Z" transform="translate(4.07 4.44)"/><path class="cls-3" d="M2628.65,2809c-25.49,0-25.49,39.54,0,39.54s25.5-39.54,0-39.54Z" transform="translate(4.07 4.44)"/><path class="cls-3" d="M2842.16,2724h5.93a19.77,19.77,0,0,0,0-39.54h-5.93a19.77,19.77,0,0,0,0,39.54Z" transform="translate(4.07 4.44)"/><path class="cls-3" d="M2854,2815c-25.5,0-25.5,39.54,0,39.54s25.5-39.54,0-39.54Z" transform="translate(4.07 4.44)"/><path class="cls-3" d="M3049.74,2791.24c-25.5,0-25.5,39.54,0,39.54s25.5-39.54,0-39.54Z" transform="translate(4.07 4.44)"/><path class="cls-3" d="M3245.45,3008.7h5.93a19.77,19.77,0,1,0,0-39.54h-5.93a19.77,19.77,0,1,0,0,39.54Z" transform="translate(4.07 4.44)"/><path class="cls-3" d="M3002.29,3206.39c-25.5,0-25.5,39.54,0,39.54s25.5-39.54,0-39.54Z" transform="translate(4.07 4.44)"/><path class="cls-3" d="M2753.2,3236.05c-25.5,0-25.5,39.54,0,39.54s25.5-39.54,0-39.54Z" transform="translate(4.07 4.44)"/><path class="cls-3" d="M2593.07,3052.19c-25.5,0-25.5,39.54,0,39.54s25.5-39.54,0-39.54Z" transform="translate(4.07 4.44)"/><path class="cls-3" d="M2397.36,2969.16h-5.94a19.77,19.77,0,1,0,0,39.54h5.94a19.77,19.77,0,0,0,0-39.54Z" transform="translate(4.07 4.44)"/><path class="cls-3" d="M2415.15,3200.46c-25.5,0-25.5,39.54,0,39.54s25.5-39.54,0-39.54Z" transform="translate(4.07 4.44)"/><path class="cls-3" d="M2065.23,3028.47c-25.49,0-25.49,39.54,0,39.54s25.5-39.54,0-39.54Z" transform="translate(4.07 4.44)"/><path class="cls-3" d="M2225.36,3259.77c-25.49,0-25.49,39.54,0,39.54s25.5-39.54,0-39.54Z" transform="translate(4.07 4.44)"/><path class="cls-3" d="M3079.39,3325c-25.5,0-25.5,39.54,0,39.54s25.5-39.54,0-39.54Z" transform="translate(4.07 4.44)"/><path class="cls-3" d="M2889.61,3680.85c-25.5,0-25.5,39.54,0,39.54s25.5-39.54,0-39.54Z" transform="translate(4.07 4.44)"/><path class="cls-3" d="M2776.92,3431.76c-25.5,0-25.5,39.54,0,39.54s25.5-39.54,0-39.54Z" transform="translate(4.07 4.44)"/><path class="cls-3" d="M2960.78,3473.28c-25.5,0-25.5,39.54,0,39.54s25.5-39.54,0-39.54Z" transform="translate(4.07 4.44)"/><path class="cls-3" d="M2537.81,3564.94a40.23,40.23,0,0,1-6.28-3.75l4,3.09a7.61,7.61,0,0,1-1-1l3.09,4a2.06,2.06,0,0,1-.25-.4c.67,1.57,1.33,3.14,2,4.72,0,0,0-.08,0-.12.24,1.75.47,3.5.71,5.26a.49.49,0,0,0,0-.12c-.23,1.75-.47,3.5-.71,5.26a.43.43,0,0,0,0-.11c-.66,1.57-1.32,3.15-2,4.72l.05-.09-3.09,4,.08-.09-4,3.09a1,1,0,0,1,.25-.15l-4.72,2a1.72,1.72,0,0,1,.39-.1l-5.26.7a8.46,8.46,0,0,1,.87-.05,20,20,0,0,0,19.77-19.77c0-10.62-9-20-19.77-19.77a24.53,24.53,0,0,0-11.24,2.85c-4.33,2-8.61,7.54-9.48,12.25-1,5.54-.86,10.78,2.18,15.74a19.65,19.65,0,0,0,4.22,5.09,58.62,58.62,0,0,0,10.27,6.84c4.87,2.44,9.86,3.47,15.24,2a19.87,19.87,0,0,0,11.81-9.09c5.18-8.84,2.54-22.21-7.09-27Z" transform="translate(4.07 4.44)"/><path class="cls-3" d="M2842.16,3070c-25.5,0-25.5,39.54,0,39.54s25.5-39.54,0-39.54Z" transform="translate(4.07 4.44)"/><path class="cls-3" d="M3209.87,3129.29c-25.5,0-25.5,39.54,0,39.54s25.5-39.54,0-39.54Z" transform="translate(4.07 4.44)"/><path class="cls-3" d="M3251.38,3459.44h5.94a19.77,19.77,0,0,0,0-39.54h-5.94a19.77,19.77,0,0,0,0,39.54Z" transform="translate(4.07 4.44)"/><path class="cls-3" d="M2826.49,4159.41l4.45-4.45c18-18.05-9.92-46-28-28l-4.45,4.45c-18.05,18.05,9.91,46,28,28l4.45-4.45c18-18.05-9.92-46-28-28l-4.45,4.45c-18.05,18.05,9.91,46,28,28Z" transform="translate(4.07 4.44)"/><path class="cls-3" d="M3067.53,3722.37c-25.5,0-25.5,39.54,0,39.54s25.5-39.54,0-39.54Z" transform="translate(4.07 4.44)"/><path class="cls-3" d="M2836.23,3876.57c-25.5,0-25.5,39.54,0,39.54s25.5-39.54,0-39.54Z" transform="translate(4.07 4.44)"/><path class="cls-3" d="M3192.08,4224.51H3198a19.77,19.77,0,1,0,0-39.54h-5.93a19.77,19.77,0,0,0,0,39.54Z" transform="translate(4.07 4.44)"/><path class="cls-3" d="M2213.5,4782c1.11,0,2.23,0,3.34.09l-5.26-.71a5.15,5.15,0,0,1,.68.15l-4.72-2a.88.88,0,0,1,.28.16c-1.34-1-2.67-2.07-4-3.09l.09.09-3.09-4a.61.61,0,0,1,.05.12l-2.7-10a.45.45,0,0,1,0,.28c.24-1.76.47-3.51.71-5.26l0,.17c.66-1.58,1.33-3.15,2-4.73a4.52,4.52,0,0,1-.56.88l3.1-4c-1.17,1.42-2.53,2.7-3.83,4a19.77,19.77,0,0,0,28,28c1.3-1.3,2.66-2.58,3.83-4,3.44-4.19,7.17-9.44,6.39-15.29a19.65,19.65,0,0,0-2.7-10,18.43,18.43,0,0,0-3.23-4.22c-2.25-2.56-6-4.31-9.19-5.3a31.57,31.57,0,0,0-9.08-.88,19.77,19.77,0,0,0,0,39.54Z" transform="translate(4.07 4.44)"/><path class="cls-3" d="M1970.34,4208.69h-5.93a19.77,19.77,0,1,0,0,39.54h5.93a19.77,19.77,0,1,0,0-39.54Z" transform="translate(4.07 4.44)"/><path class="cls-3" d="M2355.84,4380.68c-25.5,0-25.5,39.54,0,39.54s25.5-39.54,0-39.54Z" transform="translate(4.07 4.44)"/><path class="cls-3" d="M1869.52,3829.12h-5.93a19.77,19.77,0,1,0,0,39.54h5.93a19.77,19.77,0,0,0,0-39.54Z" transform="translate(4.07 4.44)"/><path class="cls-3" d="M1537.4,3823.19c-25.5,0-25.5,39.54,0,39.54s25.49-39.54,0-39.54Z" transform="translate(4.07 4.44)"/><path class="cls-3" d="M1404.94,4175.08V4181a19.77,19.77,0,0,0,39.54,0v-5.93a19.77,19.77,0,0,0-39.54,0Z" transform="translate(4.07 4.44)"/><path class="cls-3" d="M1312,3918.08c-25.5,0-25.5,39.54,0,39.54s25.5-39.54,0-39.54Z" transform="translate(4.07 4.44)"/><path class="cls-3" d="M974,4078.21H968a19.77,19.77,0,0,0,0,39.54H974a19.77,19.77,0,1,0,0-39.54Z" transform="translate(4.07 4.44)"/><path class="cls-3" d="M851.41,3878.55v-5.93a19.77,19.77,0,1,0-39.54,0v5.93a19.77,19.77,0,0,0,39.54,0Z" transform="translate(4.07 4.44)"/><path class="cls-3" d="M683.37,4161.24c-25.5,0-25.5,39.54,0,39.54s25.5-39.54,0-39.54Z" transform="translate(4.07 4.44)"/><path class="cls-3" d="M1922.9,4558.6c-25.5,0-25.5,39.54,0,39.54s25.5-39.54,0-39.54Z" transform="translate(4.07 4.44)"/><path class="cls-3" d="M2800.65,4884.8c-25.5,0-25.5,39.54,0,39.54s25.5-39.54,0-39.54Z" transform="translate(4.07 4.44)"/><path class="cls-3" d="M1240.86,4867c-25.5,0-25.5,39.54,0,39.54s25.5-39.54,0-39.54Z" transform="translate(4.07 4.44)"/><path class="cls-3" d="M849.43,4398.47c-25.5,0-25.5,39.54,0,39.54s25.5-39.54,0-39.54Z" transform="translate(4.07 4.44)"/><path class="cls-3" d="M1361.45,4560.58a5.83,5.83,0,0,1,.06-.72c-.23,1.75-.47,3.5-.7,5.25a8.39,8.39,0,0,1,.54-2c-.66,1.57-1.32,3.15-2,4.72a8.65,8.65,0,0,1,.63-1.1l-3.09,4a6.42,6.42,0,0,1,1-1l-4,3.09a7.56,7.56,0,0,1,1-.6l-4.72,2a7.83,7.83,0,0,1,1.7-.48l-5.25.71a7.17,7.17,0,0,1,1-.07c10.77-.34,19.77-8.73,19.77-19.77,0-10.52-9-20.11-19.77-19.77-9.2.29-17.3,4.51-22.11,12.48a27.27,27.27,0,0,0-3.59,13.22c-.12,10.78,9.08,19.77,19.77,19.77a20,20,0,0,0,19.77-19.77Z" transform="translate(4.07 4.44)"/><path class="cls-3" d="M1319.13,2671.7c-25.5,0-25.5,39.54,0,39.54s25.49-39.54,0-39.54Z" transform="translate(4.07 4.44)"/><path class="cls-3" d="M1550.43,2616.35h5.93a19.77,19.77,0,1,0,0-39.54h-5.93a19.77,19.77,0,0,0,0,39.54Z" transform="translate(4.07 4.44)"/><path class="cls-3" d="M1141.21,2653.91c-25.5,0-25.5,39.54,0,39.54s25.49-39.54,0-39.54Z" transform="translate(4.07 4.44)"/><path class="cls-3" d="M1431.81,2770.55h5.93a19.77,19.77,0,1,0,0-39.54h-5.93a19.77,19.77,0,0,0,0,39.54Z" transform="translate(4.07 4.44)"/><path class="cls-3" d="M2115.82,2596.79c-25.5,0-25.5,39.54,0,39.54s25.5-39.54,0-39.54Z" transform="translate(4.07 4.44)"/><path class="cls-3" d="M1920.11,2638.31c-25.5,0-25.5,39.54,0,39.54s25.5-39.54,0-39.54Z" transform="translate(4.07 4.44)"/><path class="cls-3" d="M1896.38,2555.27c-25.49,0-25.49,39.54,0,39.54s25.5-39.54,0-39.54Z" transform="translate(4.07 4.44)"/><path class="cls-3" d="M1795.56,2656.1c-25.5,0-25.5,39.54,0,39.54s25.5-39.54,0-39.54Z" transform="translate(4.07 4.44)"/></g><g class="cls-2"><path class="cls-3" d="M2685.43,2491.9l-5.93,5.93a9.88,9.88,0,1,0,14,14l5.93-5.93a9.88,9.88,0,0,0-14-14Z" transform="translate(4.07 4.44)"/><path class="cls-3" d="M2670.67,2249.79c0,.92,0,1.84,0,2.75s-.44,2.25.21-1.37a4.34,4.34,0,0,1-.14.48,8.06,8.06,0,0,1,2.12-3.66l1.69-1.3c2.06-.79,2.64-1,1.74-.74-1.35.42,3-.32,1.47-.17-1,.09-2.07.06-3.1.06a9.89,9.89,0,0,0,0,19.77c4.58,0,8.59-.47,12.18-3.64,3.44-3,3.63-8,3.63-12.18a9.89,9.89,0,0,0-19.77,0Z" transform="translate(4.07 4.44)"/><path class="cls-3" d="M2905.93,2342.71c12.75,0,12.75-19.77,0-19.77s-12.75,19.77,0,19.77Z" transform="translate(4.07 4.44)"/><path class="cls-3" d="M3066.06,2085.71h-5.93a9.89,9.89,0,0,0,0,19.77h5.93a9.89,9.89,0,1,0,0-19.77Z" transform="translate(4.07 4.44)"/><path class="cls-3" d="M2822.9,1820.8c12.75,0,12.75-19.77,0-19.77s-12.75,19.77,0,19.77Z" transform="translate(4.07 4.44)"/><path class="cls-3" d="M2514.5,1844.52c12.75,0,12.75-19.77,0-19.77s-12.75,19.77,0,19.77Z" transform="translate(4.07 4.44)"/><path class="cls-3" d="M2757.66,2067.92c25.5,0,25.5-39.54,0-39.54s-25.49,39.54,0,39.54Z" transform="translate(4.07 4.44)"/><path class="cls-3" d="M3113.51,2601.69c25.49,0,25.49-39.54,0-39.54s-25.5,39.54,0,39.54Z" transform="translate(4.07 4.44)"/><path class="cls-3" d="M2384,2524.59c25.5,0,25.5-39.54,0-39.54s-25.49,39.54,0,39.54Z" transform="translate(4.07 4.44)"/><path class="cls-3" d="M2134.93,2281.42c25.5,0,25.5-39.54,0-39.54s-25.49,39.54,0,39.54Z" transform="translate(4.07 4.44)"/><path class="cls-3" d="M1903.63,2500.86c25.5,0,25.5-39.54,0-39.54s-25.49,39.54,0,39.54Z" transform="translate(4.07 4.44)"/><path class="cls-3" d="M2247.62,2578c25.49,0,25.49-39.54,0-39.54s-25.5,39.54,0,39.54Z" transform="translate(4.07 4.44)"/><path class="cls-3" d="M1725.71,2180.6c25.5,0,25.5-39.54,0-39.54s-25.5,39.54,0,39.54Z" transform="translate(4.07 4.44)"/><path class="cls-3" d="M1203.8,2554.24c25.5,0,25.5-39.54,0-39.54s-25.5,39.54,0,39.54Z" transform="translate(4.07 4.44)"/><path class="cls-3" d="M1310.56,1901.86h1.66a19.77,19.77,0,0,0,0-39.54h-7.59a19.77,19.77,0,0,0,0,39.54h7.59a19.77,19.77,0,0,0,0-39.54h-1.66a19.77,19.77,0,0,0,0,39.54Z" transform="translate(4.07 4.44)"/><path class="cls-3" d="M1399.52,2512.72c25.5,0,25.5-39.54,0-39.54s-25.5,39.54,0,39.54Z" transform="translate(4.07 4.44)"/><path class="cls-3" d="M1824.55,1627.06v2.64c0,25.5,39.54,25.5,39.54,0v-2.64c0-25.49-39.54-25.49-39.54,0v2.64c0,25.5,39.54,25.5,39.54,0v-2.64c0-25.49-39.54-25.49-39.54,0Z" transform="translate(4.07 4.44)"/><path class="cls-3" d="M2040,2002.68c25.5,0,25.5-39.54,0-39.54s-25.5,39.54,0,39.54Z" transform="translate(4.07 4.44)"/><path class="cls-3" d="M1476.62,2020.47c25.5,0,25.5-39.54,0-39.54s-25.5,39.54,0,39.54Z" transform="translate(4.07 4.44)"/><path class="cls-3" d="M1672.33,2556.21h-5.93a19.77,19.77,0,0,0,0,39.54h5.93a19.77,19.77,0,1,0,0-39.54Z" transform="translate(4.07 4.44)"/><path class="cls-3" d="M782.72,2607.62c25.5,0,25.5-39.54,0-39.54s-25.5,39.54,0,39.54Z" transform="translate(4.07 4.44)"/><path class="cls-3" d="M235,2378.15l-5.93,5.93a19.77,19.77,0,1,0,28,28l5.93-5.93a19.77,19.77,0,0,0-28-28Z" transform="translate(4.07 4.44)"/><path class="cls-3" d="M984.37,2263.63c25.49,0,25.49-39.54,0-39.54s-25.5,39.54,0,39.54Z" transform="translate(4.07 4.44)"/><path class="cls-3" d="M225.23,2631.34c25.5,0,25.5-39.54,0-39.54s-25.5,39.54,0,39.54Z" transform="translate(4.07 4.44)"/><path class="cls-3" d="M592.94,2566.1c25.49,0,25.49-39.54,0-39.54s-25.5,39.54,0,39.54Z" transform="translate(4.07 4.44)"/><path class="cls-3" d="M622.59,2394.11c25.5,0,25.5-39.54,0-39.54s-25.5,39.54,0,39.54Z" transform="translate(4.07 4.44)"/><path class="cls-3" d="M2413.68,2340.73c25.49,0,25.49-39.54,0-39.54s-25.5,39.54,0,39.54Z" transform="translate(4.07 4.44)"/><path class="cls-3" d="M2716.14,2583.89c25.5,0,25.5-39.54,0-39.54s-25.49,39.54,0,39.54Z" transform="translate(4.07 4.44)"/><path class="cls-3" d="M2994.89,2548.31c25.5,0,25.5-39.54,0-39.54s-25.5,39.54,0,39.54Z" transform="translate(4.07 4.44)"/><path class="cls-3" d="M3153,2315V2321a19.77,19.77,0,1,0,39.54,0V2315a19.77,19.77,0,0,0-39.54,0Z" transform="translate(4.07 4.44)"/><path class="cls-3" d="M3176.77,1937.45a16.12,16.12,0,0,1-.15,1.83c.24-1.75.47-3.5.71-5.25a31.27,31.27,0,0,1-2,6.7c.66-1.57,1.33-3.14,2-4.72a19.54,19.54,0,0,1-2.26,4.2l3.09-4a5.53,5.53,0,0,1-.53.55l4-3.09a.94.94,0,0,1-.31.17l4.72-2-.13,0h10.51l-.12,0,4.72,2-.11-.07,4,3.09-.1-.12,3.09,4a.89.89,0,0,0-.08-.17c.67,1.57,1.33,3.15,2,4.72a2.78,2.78,0,0,1-.11-.5c.24,1.75.47,3.5.71,5.25a5.79,5.79,0,0,1,0-.72c-.27-10.77-8.79-19.77-19.77-19.77-10.57,0-20,9-19.77,19.77.22,8.93,5.51,18.83,15.08,20.68,10.38,2,18.38-2.14,23.89-10.68a44.58,44.58,0,0,0,6.5-21.86c.25-10.78-9.18-19.77-19.77-19.77a20,20,0,0,0-19.77,19.77Z" transform="translate(4.07 4.44)"/><path class="cls-3" d="M2419.61,2008.61c25.49,0,25.49-39.54,0-39.54s-25.5,39.54,0,39.54Z" transform="translate(4.07 4.44)"/><path class="cls-3" d="M2562,2483.07c25.49,0,25.49-39.54,0-39.54s-25.5,39.54,0,39.54Z" transform="translate(4.07 4.44)"/><path class="cls-3" d="M2253.55,2135.13h-5.93a19.77,19.77,0,1,0,0,39.54h5.93a19.77,19.77,0,1,0,0-39.54Z" transform="translate(4.07 4.44)"/><path class="cls-3" d="M1885.84,2222.12c25.5,0,25.5-39.54,0-39.54s-25.5,39.54,0,39.54Z" transform="translate(4.07 4.44)"/><path class="cls-3" d="M1332.3,2344.69a29.07,29.07,0,0,1-.13,3.73c.24-1.76.47-3.51.7-5.26a4.14,4.14,0,0,1-.26,1l2-4.72a2.5,2.5,0,0,1-.21.35l3.09-4a1.44,1.44,0,0,1-.28.27q2-1.53,4-3.08a1.71,1.71,0,0,1-.35.21l4.72-2a4.4,4.4,0,0,1-1,.27l5.26-.71a27.31,27.31,0,0,1-3.73.14,19.77,19.77,0,0,0,0,39.54,29,29,0,0,0,3.73-.13c.77-.11,4.45-.25,6.22-1,4.87-2,5.21-1.89,9.22-5.43,5.44-4.8,6.53-12.36,6.53-19.16a19.77,19.77,0,0,0-39.54,0Z" transform="translate(4.07 4.44)"/><path class="cls-3" d="M1055.53,2067.92c25.5,0,25.5-39.54,0-39.54s-25.49,39.54,0,39.54Z" transform="translate(4.07 4.44)"/><path class="cls-3" d="M978.43,1613.22c-1.21,0-2.41,0-3.62.11-5.85.54-6.8,1-12.12,3.25-3.85,1.65-7.14,5.41-10.1,8.37a19.77,19.77,0,1,0,28,28c1.43-1.42,2.84-2.88,4.39-4.17l-4,3.09a9.23,9.23,0,0,1,2-1.23l-4.72,2a8.35,8.35,0,0,1,1.41-.37l-5.25.71a31.56,31.56,0,0,1,4-.16,19.77,19.77,0,1,0,0-39.54Z" transform="translate(4.07 4.44)"/><path class="cls-3" d="M1114.84,1344.37c25.5,0,25.5-39.55,0-39.55s-25.5,39.55,0,39.55Z" transform="translate(4.07 4.44)"/><path class="cls-3" d="M1636.75,2427.72c38.25,0,38.25-59.31,0-59.31s-38.25,59.31,0,59.31Z" transform="translate(4.07 4.44)"/><path class="cls-3" d="M931,2558.19c38.25,0,38.25-59.31,0-59.31s-38.25,59.31,0,59.31Z" transform="translate(4.07 4.44)"/><path class="cls-3" d="M1156.36,2409.92c38.24,0,38.24-59.31,0-59.31s-38.25,59.31,0,59.31Z" transform="translate(4.07 4.44)"/><path class="cls-3" d="M426.87,2338.75c38.25,0,38.25-59.31,0-59.31s-38.24,59.31,0,59.31Z" transform="translate(4.07 4.44)"/><path class="cls-3" d="M367.57,2570.05c38.24,0,38.24-59.31,0-59.31s-38.25,59.31,0,59.31Z" transform="translate(4.07 4.44)"/><path class="cls-3" d="M53.24,2570.05c38.24,0,38.24-59.31,0-59.31s-38.25,59.31,0,59.31Z" transform="translate(4.07 4.44)"/><path class="cls-3" d="M2538.22,2629.36c38.25,0,38.25-59.31,0-59.31s-38.25,59.31,0,59.31Z" transform="translate(4.07 4.44)"/><path class="cls-3" d="M2828.83,2469.23c38.25,0,38.25-59.31,0-59.31s-38.25,59.31,0,59.31Z" transform="translate(4.07 4.44)"/><path class="cls-3" d="M2917.79,2285.38h1.66a29.66,29.66,0,0,0,0-59.31h-7.59a29.66,29.66,0,0,0,0,59.31h7.59a29.66,29.66,0,0,0,0-59.31h-1.66a29.66,29.66,0,1,0,0,59.31Z" transform="translate(4.07 4.44)"/><path class="cls-3" d="M3125.37,2469.23c38.24,0,38.24-59.31,0-59.31s-38.25,59.31,0,59.31Z" transform="translate(4.07 4.44)"/><path class="cls-3" d="M3249.91,2208.28c38.25,0,38.25-59.31,0-59.31s-38.24,59.31,0,59.31Z" transform="translate(4.07 4.44)"/><path class="cls-3" d="M2698.35,2160.83c38.25,0,38.25-59.31,0-59.31s-38.24,59.31,0,59.31Z" transform="translate(4.07 4.44)"/><path class="cls-3" d="M2413.68,2249.79c38.24,0,38.24-59.31,0-59.31s-38.25,59.31,0,59.31Z" transform="translate(4.07 4.44)"/><path class="cls-3" d="M2295.06,1793.12c38.25,0,38.25-59.31,0-59.31s-38.24,59.31,0,59.31Z" transform="translate(4.07 4.44)"/><path class="cls-3" d="M1826.53,1899.88c38.25,0,38.25-59.31,0-59.31s-38.24,59.31,0,59.31Z" transform="translate(4.07 4.44)"/><path class="cls-3" d="M2739.87,1733.82c38.25,0,38.25-59.31,0-59.31s-38.25,59.31,0,59.31Z" transform="translate(4.07 4.44)"/><path class="cls-3" d="M2639.05,2370.39c25.49,0,25.49-39.54,0-39.54s-25.5,39.54,0,39.54Z" transform="translate(4.07 4.44)"/><path class="cls-3" d="M2923.72,2180.6c25.5,0,25.5-39.54,0-39.54s-25.5,39.54,0,39.54Z" transform="translate(4.07 4.44)"/><path class="cls-3" d="M3048.27,2382.25c25.49,0,25.49-39.54,0-39.54s-25.5,39.54,0,39.54Z" transform="translate(4.07 4.44)"/><path class="cls-3" d="M3072,2222.12c25.5,0,25.5-39.54,0-39.54s-25.5,39.54,0,39.54Z" transform="translate(4.07 4.44)"/><path class="cls-3" d="M3291.43,2417.83c25.5,0,25.5-39.54,0-39.54s-25.5,39.54,0,39.54Z" transform="translate(4.07 4.44)"/><path class="cls-3" d="M3048.27,1937.44c25.49,0,25.49-39.54,0-39.54s-25.5,39.54,0,39.54Z" transform="translate(4.07 4.44)"/><path class="cls-3" d="M2905.93,1625.09h-2.64c-25.49,0-25.49,39.54,0,39.54h2.64c25.5,0,25.5-39.54,0-39.54h-2.64c-25.49,0-25.49,39.54,0,39.54h2.64c25.5,0,25.5-39.54,0-39.54Z" transform="translate(4.07 4.44)"/><path class="cls-3" d="M3255.84,1937.44c25.5,0,25.5-39.54,0-39.54s-25.49,39.54,0,39.54Z" transform="translate(4.07 4.44)"/><path class="cls-3" d="M3244,1587.53c25.5,0,25.5-39.54,0-39.54s-25.5,39.54,0,39.54Z" transform="translate(4.07 4.44)"/><path class="cls-3" d="M3261.77,1233.66h-5.93a19.77,19.77,0,0,0,0,39.54h5.93a19.77,19.77,0,0,0,0-39.54Z" transform="translate(4.07 4.44)"/><path class="cls-3" d="M2923.72,1302.85c25.5,0,25.5-39.54,0-39.54s-25.5,39.54,0,39.54Z" transform="translate(4.07 4.44)"/><path class="cls-3" d="M2876.28,1510.43c25.49,0,25.49-39.54,0-39.54s-25.5,39.54,0,39.54Z" transform="translate(4.07 4.44)"/><path class="cls-3" d="M3107.58,1291h7.59a19.77,19.77,0,0,0,0-39.54h-1.66a19.77,19.77,0,0,0,0,39.54h1.66a19.77,19.77,0,0,0,0-39.54h-7.59a19.77,19.77,0,1,0,0,39.54Z" transform="translate(4.07 4.44)"/><path class="cls-3" d="M2645,739.43h5.93a19.77,19.77,0,0,0,0-39.54H2645a19.77,19.77,0,0,0,0,39.54Z" transform="translate(4.07 4.44)"/><path class="cls-3" d="M3042.34,745.36c25.49,0,25.49-39.54,0-39.54s-25.5,39.54,0,39.54Z" transform="translate(4.07 4.44)"/><path class="cls-3" d="M3066.06,1089.34c25.5,0,25.5-39.54,0-39.54s-25.49,39.54,0,39.54Z" transform="translate(4.07 4.44)"/><path class="cls-3" d="M2793.24,935.14c25.5,0,25.5-39.54,0-39.54s-25.49,39.54,0,39.54Z" transform="translate(4.07 4.44)"/><path class="cls-3" d="M2609.39,1439.26c25.5,0,25.5-39.54,0-39.54s-25.5,39.54,0,39.54Z" transform="translate(4.07 4.44)"/><path class="cls-3" d="M2407.75,1723.93c25.49,0,25.49-39.54,0-39.54s-25.5,39.54,0,39.54Z" transform="translate(4.07 4.44)"/><path class="cls-3" d="M2366.23,1534.15c25.5,0,25.5-39.54,0-39.54s-25.49,39.54,0,39.54Z" transform="translate(4.07 4.44)"/><path class="cls-3" d="M2615.32,1872.2c25.5,0,25.5-39.54,0-39.54s-25.5,39.54,0,39.54Z" transform="translate(4.07 4.44)"/><path class="cls-3" d="M2524.38,2137.11v3.95c0,25.5,39.54,25.5,39.54,0v-3.95c0-25.5-39.54-25.5-39.54,0v3.95c0,25.5,39.54,25.5,39.54,0v-3.95c0-25.5-39.54-25.5-39.54,0Z" transform="translate(4.07 4.44)"/><path class="cls-3" d="M2478.91,2429.69c25.5,0,25.5-39.54,0-39.54s-25.49,39.54,0,39.54Z" transform="translate(4.07 4.44)"/><path class="cls-3" d="M2200.17,2453.42c25.5,0,25.5-39.54,0-39.54s-25.5,39.54,0,39.54Z" transform="translate(4.07 4.44)"/><path class="cls-3" d="M2295.06,2287.36c25.5,0,25.5-39.54,0-39.54s-25.49,39.54,0,39.54Z" transform="translate(4.07 4.44)"/><path class="cls-3" d="M2069.69,2162.81c25.5,0,25.5-39.54,0-39.54s-25.49,39.54,0,39.54Z" transform="translate(4.07 4.44)"/><path class="cls-3" d="M1951.08,2370.39c25.5,0,25.5-39.54,0-39.54s-25.5,39.54,0,39.54Z" transform="translate(4.07 4.44)"/><path class="cls-3" d="M2081.55,2518.66c25.5,0,25.5-39.55,0-39.55s-25.49,39.55,0,39.55Z" transform="translate(4.07 4.44)"/><path class="cls-3" d="M1423.24,2595.75c25.5,0,25.5-39.54,0-39.54s-25.5,39.54,0,39.54Z" transform="translate(4.07 4.44)"/><path class="cls-3" d="M1791,2402H1785a19.78,19.78,0,0,0,0,39.55H1791a19.78,19.78,0,0,0,0-39.55Z" transform="translate(4.07 4.44)"/><path class="cls-3" d="M1524.06,2494.93c25.5,0,25.5-39.54,0-39.54s-25.49,39.54,0,39.54Z" transform="translate(4.07 4.44)"/><path class="cls-3" d="M1488.48,2239.91c25.5,0,25.5-39.54,0-39.54s-25.5,39.54,0,39.54Z" transform="translate(4.07 4.44)"/><path class="cls-3" d="M1666.4,2299.22c25.5,0,25.5-39.54,0-39.54s-25.5,39.54,0,39.54Z" transform="translate(4.07 4.44)"/><path class="cls-3" d="M1272.85,2152.78l-5.93,5.93a19.77,19.77,0,0,0,28,28l5.93-5.93a19.77,19.77,0,0,0-28-28Z" transform="translate(4.07 4.44)"/><path class="cls-3" d="M1079.26,2483.07c25.5,0,25.5-39.54,0-39.54s-25.5,39.54,0,39.54Z" transform="translate(4.07 4.44)"/><path class="cls-3" d="M1012,2570.05V2576a19.77,19.77,0,0,0,39.54,0v-5.93a19.77,19.77,0,1,0-39.54,0Z" transform="translate(4.07 4.44)"/><path class="cls-3" d="M780.74,2404v5.93a19.77,19.77,0,0,0,39.54,0V2404a19.77,19.77,0,0,0-39.54,0Z" transform="translate(4.07 4.44)"/><path class="cls-3" d="M681.9,2518.66c25.5,0,25.5-39.55,0-39.55s-25.5,39.55,0,39.55Z" transform="translate(4.07 4.44)"/><path class="cls-3" d="M468.39,2603.66h-5.93a19.77,19.77,0,1,0,0,39.54h5.93a19.77,19.77,0,1,0,0-39.54Z" transform="translate(4.07 4.44)"/><path class="cls-3" d="M456.53,2512.72c25.5,0,25.5-39.54,0-39.54s-25.5,39.54,0,39.54Z" transform="translate(4.07 4.44)"/><path class="cls-3" d="M260.81,2536.45c25.5,0,25.5-39.54,0-39.54s-25.49,39.54,0,39.54Z" transform="translate(4.07 4.44)"/><path class="cls-3" d="M65.1,2319H59.17a19.77,19.77,0,0,0,0,39.54H65.1a19.77,19.77,0,0,0,0-39.54Z" transform="translate(4.07 4.44)"/><path class="cls-3" d="M308.26,2121.29c25.5,0,25.5-39.54,0-39.54s-25.5,39.54,0,39.54Z" transform="translate(4.07 4.44)"/><path class="cls-3" d="M557.35,2091.64c25.5,0,25.5-39.54,0-39.54s-25.5,39.54,0,39.54Z" transform="translate(4.07 4.44)"/><path class="cls-3" d="M717.48,2275.49c25.5,0,25.5-39.54,0-39.54s-25.5,39.54,0,39.54Z" transform="translate(4.07 4.44)"/><path class="cls-3" d="M913.2,2358.52h5.93a19.77,19.77,0,0,0,0-39.54H913.2a19.77,19.77,0,0,0,0,39.54Z" transform="translate(4.07 4.44)"/><path class="cls-3" d="M895.4,2127.22c25.5,0,25.5-39.54,0-39.54s-25.49,39.54,0,39.54Z" transform="translate(4.07 4.44)"/><path class="cls-3" d="M1245.32,2299.22c25.5,0,25.5-39.54,0-39.54s-25.5,39.54,0,39.54Z" transform="translate(4.07 4.44)"/><path class="cls-3" d="M1085.19,2067.92c25.5,0,25.5-39.54,0-39.54s-25.5,39.54,0,39.54Z" transform="translate(4.07 4.44)"/><path class="cls-3" d="M231.16,2002.68c25.5,0,25.5-39.54,0-39.54s-25.5,39.54,0,39.54Z" transform="translate(4.07 4.44)"/><path class="cls-3" d="M420.94,1646.83c25.5,0,25.5-39.54,0-39.54s-25.49,39.54,0,39.54Z" transform="translate(4.07 4.44)"/><path class="cls-3" d="M533.63,1895.93c25.5,0,25.5-39.54,0-39.54s-25.5,39.54,0,39.54Z" transform="translate(4.07 4.44)"/><path class="cls-3" d="M349.77,1854.41c25.5,0,25.5-39.54,0-39.54s-25.49,39.54,0,39.54Z" transform="translate(4.07 4.44)"/><path class="cls-3" d="M772.74,1762.75a39.72,39.72,0,0,1,6.28,3.74l-4-3.09a7,7,0,0,1,1,.95l-3.09-4a2.14,2.14,0,0,1,.25.41l-2-4.72,0,.12c-.24-1.75-.47-3.51-.71-5.26a.49.49,0,0,1,0,.12c.24-1.76.47-3.51.71-5.26a.43.43,0,0,0,0,.11c.66-1.58,1.33-3.15,2-4.73a.93.93,0,0,1-.05.1l3.09-4-.08.09,4-3.09a.77.77,0,0,1-.25.14l4.72-2a1.59,1.59,0,0,1-.39.1l5.26-.71a8.48,8.48,0,0,1-.87.06,20,20,0,0,0-19.77,19.77c0,10.61,9,20,19.77,19.77a24.42,24.42,0,0,0,11.24-2.86,19,19,0,0,0,9.48-12.25c1-5.53.86-10.77-2.17-15.73a19.9,19.9,0,0,0-4.22-5.1,58.28,58.28,0,0,0-10.28-6.83c-4.87-2.44-9.86-3.47-15.24-2a19.9,19.9,0,0,0-11.81,9.08c-5.18,8.84-2.53,22.22,7.09,27Z" transform="translate(4.07 4.44)"/><path class="cls-3" d="M468.39,2257.7c25.5,0,25.5-39.54,0-39.54s-25.5,39.54,0,39.54Z" transform="translate(4.07 4.44)"/><path class="cls-3" d="M100.68,2198.39c25.5,0,25.5-39.54,0-39.54s-25.49,39.54,0,39.54Z" transform="translate(4.07 4.44)"/><path class="cls-3" d="M59.17,1868.25H53.24a19.77,19.77,0,0,0,0,39.54h5.93a19.77,19.77,0,1,0,0-39.54Z" transform="translate(4.07 4.44)"/><path class="cls-3" d="M484.06,1168.28l-4.44,4.45c-18.05,18,9.91,46,28,28l4.44-4.45c18.05-18-9.91-46-28-28l-4.44,4.45c-18.05,18,9.91,46,28,28l4.44-4.45c18.05-18-9.91-46-28-28Z" transform="translate(4.07 4.44)"/><path class="cls-3" d="M243,1605.32c25.5,0,25.5-39.54,0-39.54s-25.5,39.54,0,39.54Z" transform="translate(4.07 4.44)"/><path class="cls-3" d="M474.32,1451.12c25.5,0,25.5-39.54,0-39.54s-25.5,39.54,0,39.54Z" transform="translate(4.07 4.44)"/><path class="cls-3" d="M118.48,1103.18h-5.93a19.77,19.77,0,0,0,0,39.54h5.93a19.77,19.77,0,1,0,0-39.54Z" transform="translate(4.07 4.44)"/><path class="cls-3" d="M1097.05,545.69c-1.11,0-2.23,0-3.34-.09l5.26.7a3.32,3.32,0,0,1-.68-.15l4.72,2a.92.92,0,0,1-.27-.16l4,3.09-.09-.1,3.09,4a1.17,1.17,0,0,1,0-.11l2.7,10a.66.66,0,0,1,0-.28c-.24,1.75-.47,3.5-.71,5.26a1.54,1.54,0,0,0,0-.17c-.66,1.57-1.32,3.15-2,4.72a5,5,0,0,1,.56-.87l-3.09,4c1.17-1.42,2.52-2.7,3.82-4a19.77,19.77,0,0,0-28-28c-1.3,1.3-2.65,2.58-3.82,4-3.45,4.2-7.18,9.45-6.4,15.3a19.67,19.67,0,0,0,2.7,10,18.16,18.16,0,0,0,3.23,4.21c2.25,2.57,6,4.31,9.19,5.3a31.22,31.22,0,0,0,9.08.89,19.77,19.77,0,0,0,0-39.54Z" transform="translate(4.07 4.44)"/><path class="cls-3" d="M1340.21,1119h5.93a19.77,19.77,0,0,0,0-39.54h-5.93a19.77,19.77,0,0,0,0,39.54Z" transform="translate(4.07 4.44)"/><path class="cls-3" d="M954.71,947c25.5,0,25.5-39.54,0-39.54s-25.5,39.54,0,39.54Z" transform="translate(4.07 4.44)"/><path class="cls-3" d="M1441,1498.56H1447a19.77,19.77,0,0,0,0-39.54H1441a19.77,19.77,0,1,0,0,39.54Z" transform="translate(4.07 4.44)"/><path class="cls-3" d="M1773.15,1504.5c25.5,0,25.5-39.54,0-39.54s-25.49,39.54,0,39.54Z" transform="translate(4.07 4.44)"/><path class="cls-3" d="M1905.61,1152.6v-5.93a19.77,19.77,0,0,0-39.54,0v5.93a19.77,19.77,0,0,0,39.54,0Z" transform="translate(4.07 4.44)"/><path class="cls-3" d="M1998.52,1409.6c25.5,0,25.5-39.54,0-39.54s-25.49,39.54,0,39.54Z" transform="translate(4.07 4.44)"/><path class="cls-3" d="M2336.58,1249.47h5.93a19.77,19.77,0,0,0,0-39.54h-5.93a19.77,19.77,0,0,0,0,39.54Z" transform="translate(4.07 4.44)"/><path class="cls-3" d="M2459.14,1449.14v5.93a19.77,19.77,0,0,0,39.54,0v-5.93a19.77,19.77,0,0,0-39.54,0Z" transform="translate(4.07 4.44)"/><path class="cls-3" d="M2627.18,1166.44c25.5,0,25.5-39.54,0-39.54s-25.49,39.54,0,39.54Z" transform="translate(4.07 4.44)"/><path class="cls-3" d="M1387.66,769.08c25.49,0,25.49-39.54,0-39.54s-25.5,39.54,0,39.54Z" transform="translate(4.07 4.44)"/><path class="cls-3" d="M509.91,442.89c25.49,0,25.49-39.54,0-39.54s-25.5,39.54,0,39.54Z" transform="translate(4.07 4.44)"/><path class="cls-3" d="M2069.69,460.68c25.5,0,25.5-39.54,0-39.54s-25.49,39.54,0,39.54Z" transform="translate(4.07 4.44)"/><path class="cls-3" d="M2461.12,929.21c25.5,0,25.5-39.54,0-39.54s-25.5,39.54,0,39.54Z" transform="translate(4.07 4.44)"/><path class="cls-3" d="M1949.1,767.1a5.83,5.83,0,0,1-.06.73c.24-1.75.47-3.5.71-5.26a8.86,8.86,0,0,1-.55,2c.66-1.58,1.33-3.15,2-4.73a8.12,8.12,0,0,1-.63,1.11l3.09-4a6.07,6.07,0,0,1-1,1l4-3.09a7.56,7.56,0,0,1-1,.6l4.72-2a7.17,7.17,0,0,1-1.7.48l5.25-.7a8.94,8.94,0,0,1-1,.06c-10.77.34-19.77,8.74-19.77,19.77,0,10.52,9,20.11,19.77,19.77,9.2-.28,17.3-4.51,22.11-12.48a27,27,0,0,0,3.59-13.22c.12-10.77-9.08-19.77-19.77-19.77a20,20,0,0,0-19.77,19.77Z" transform="translate(4.07 4.44)"/></g></g><g id="Layer_1" data-name="Layer 1"><g class="cls-4"><polygon class="cls-3" points="3294.14 3457.95 1029.5 502.69 4.07 1266.87 4.07 1182.83 1042.55 408.93 3290.07 3341.86 3294.14 3457.95"/></g><g class="cls-4"><polygon class="cls-3" points="3290.07 3782.85 988.59 757.9 4.07 1491.59 4.07 1466.38 992.5 729.78 3294.14 3733.32 3290.07 3782.85"/></g><polygon class="cls-5" points="3290.07 84.48 3290.07 0 1259.63 1535.71 154.79 4.44 71.7 4.44 1245.31 1631.02 3290.07 84.48"/><polyline class="cls-5" points="4.07 141.01 1216.67 1821.64 3290.07 253.44 3290.07 165.52 1230.99 1726.33 4.07 25.86"/><polygon class="cls-5" points="3290.07 4060.87 952.1 994.34 4.07 1700.84 4.07 1532.77 978.46 806.64 3294.14 3843.95 3290.07 4060.87"/><g class="cls-4"><polygon class="cls-3" points="3290.07 3679.26 996.09 685.7 4.07 1424.97 4.07 1366.15 1005.22 620.07 3290.07 3601.71 3290.07 3679.26"/></g><g class="cls-4"><polygon class="cls-3" points="1175.72 1938.19 4.07 315.19 4.07 285.53 1179.3 1914.37 3290.07 317.9 3290.07 339.02 1175.72 1938.19"/></g><g class="cls-4"><polygon class="cls-3" points="0 3924.52 2264.63 6879.79 3290.07 6115.61 3290.07 6199.64 2251.59 6973.54 4.07 4040.61 0 3924.52"/></g><g class="cls-4"><polygon class="cls-3" points="4.07 3599.62 2305.55 6624.57 3290.07 5890.88 3290.07 5916.09 2301.63 6652.69 0 3649.15 4.07 3599.62"/></g><polygon class="cls-5" points="4.07 7297.99 4.07 7382.47 2034.51 5846.76 3139.35 7378.03 3222.43 7378.03 2048.82 5751.45 4.07 7297.99"/><polyline class="cls-5" points="3290.07 7241.46 2077.46 5560.83 4.07 7129.03 4.07 7216.95 2063.14 5656.14 3290.07 7356.62"/><polygon class="cls-5" points="4.07 3321.6 2342.03 6388.13 3290.07 5681.63 3290.07 5849.7 2315.68 6575.83 0 3538.52 4.07 3321.6"/><g class="cls-4"><polygon class="cls-3" points="4.07 3703.21 2298.05 6696.78 3290.07 5957.5 3290.07 6016.32 2288.92 6762.4 4.07 3780.76 4.07 3703.21"/></g><g class="cls-4"><polygon class="cls-3" points="2118.41 5444.28 3290.07 7067.28 3290.07 7096.94 2114.83 5468.1 4.07 7064.57 4.07 7043.45 2118.41 5444.28"/></g></g><g id="Layer_2" data-name="Layer 2"><polygon class="cls-6" points="37.19 500.87 848.77 37.17 848.77 964.56 37.19 500.87"/><polygon class="cls-7" points="3265.96 1944.21 2558.87 2348.21 2558.87 1540.21 3265.96 1944.21"/><path class="cls-8" d="M2575,21.55c379.38,0,687,307.58,687,687s-307.57,687-687,687-687-307.58-687-686.95S2195.52,21.55,2575,21.55Z" transform="translate(4.07 4.44)"/><path class="cls-9" d="M462.81,1626.58c204.43,0,370.16,165.74,370.16,370.17s-165.73,370.16-370.16,370.16S92.63,2201.17,92.63,1996.75,258.36,1626.58,462.81,1626.58Z" transform="translate(4.07 4.44)"/><path class="cls-10" d="M1300.45,1080.46c125.73,0,227.66,101.93,227.66,227.66s-101.93,227.65-227.66,227.65-227.66-101.93-227.66-227.65S1174.71,1080.46,1300.45,1080.46Z" transform="translate(4.07 4.44)"/><polygon class="cls-11" points="71.7 4415.56 365.81 3528.33 985.37 4218.4 71.7 4415.56"/><polygon class="cls-12" points="2019.57 5665.79 2406.77 4497.74 3222.43 5406.22 2019.57 5665.79"/><polygon class="cls-13" points="3127.31 3396.34 2871.07 4169.35 2331.26 3568.12 3127.31 3396.34"/><polygon class="cls-14" points="1076.86 6299.88 820.61 7072.89 280.81 6471.66 1076.86 6299.88"/><path class="cls-15" d="M1177.77,2487.49c265.37-238.26,673.68-216.27,911.94,49.11s216.29,673.68-49.08,911.94-673.71,216.3-912-49.07S912.36,2725.79,1177.77,2487.49Z" transform="translate(4.07 4.44)"/><path class="cls-16" d="M1054.82,5062.21c152.11-136.57,386.16-124,522.74,28.15s124,386.16-28.14,522.73-386.18,124-522.75-28.13S902.69,5198.8,1054.82,5062.21Z" transform="translate(4.07 4.44)"/><path class="cls-17" d="M1313.26,4096.24c93.55-84,237.49-76.24,321.48,17.31S1711,4351,1617.44,4435s-237.5,76.26-321.5-17.29S1219.69,4180.24,1313.26,4096.24Z" transform="translate(4.07 4.44)"/><path class="cls-18" d="M2402.71,6284.88c93.55-84,237.49-76.24,321.49,17.31s76.25,237.49-17.31,321.49-237.5,76.25-321.49-17.3S2309.15,6368.89,2402.71,6284.88Z" transform="translate(4.07 4.44)"/></g></g></svg>