<?xml version="1.0" encoding="utf-8"?>
<!-- Generator: Adobe Illustrator 24.0.1, SVG Export Plug-In . SVG Version: 6.00 Build 0)  -->
<svg version="1.1" id="Layer_1" xmlns="http://www.w3.org/2000/svg" xmlns:xlink="http://www.w3.org/1999/xlink" x="0px" y="0px"
	 viewBox="0 0 2220.1 3241.1" style="enable-background:new 0 0 2220.1 3241.1;" xml:space="preserve">
<style type="text/css">
	.st0{fill:#FFFFFF;}
	.st1{opacity:0.75;}
	.st2{opacity:0.4;fill:none;stroke:url(#SVGID_1_);stroke-width:25;stroke-miterlimit:6.7063;enable-background:new    ;}
	.st3{clip-path:url(#SVGID_3_);}
	.st4{opacity:0.2;fill:url(#SVGID_4_);enable-background:new    ;}
	.st5{opacity:0.2;fill:url(#SVGID_5_);enable-background:new    ;}
	.st6{opacity:0.2;fill:url(#SVGID_6_);enable-background:new    ;}
	.st7{opacity:0.2;fill:url(#SVGID_7_);enable-background:new    ;}
	.st8{opacity:0.2;fill:url(#SVGID_8_);enable-background:new    ;}
	.st9{opacity:0.2;fill:url(#SVGID_9_);enable-background:new    ;}
	.st10{opacity:0.2;fill:url(#SVGID_10_);enable-background:new    ;}
	.st11{opacity:0.2;fill:url(#SVGID_11_);enable-background:new    ;}
	.st12{opacity:0.2;fill:url(#SVGID_12_);enable-background:new    ;}
	.st13{opacity:5.000000e-02;}
	.st14{fill:#010101;}
	.st15{opacity:5.000000e-02;fill:#010101;enable-background:new    ;}
	.st16{fill:none;}
	.st17{clip-path:url(#SVGID_14_);}
	.st18{clip-path:url(#SVGID_16_);}
	.st19{clip-path:url(#SVGID_18_);}
	.st20{opacity:0.2;fill:url(#SVGID_19_);enable-background:new    ;}
	.st21{opacity:0.2;fill:url(#SVGID_20_);enable-background:new    ;}
</style>
<rect class="st0" width="2220.1" height="3241.1"/>
<title>final background 2</title>
<g id="Layer_5" class="st1">
	
		<linearGradient id="SVGID_1_" gradientUnits="userSpaceOnUse" x1="6039.3652" y1="-377.1942" x2="9185.4229" y2="-377.1942" gradientTransform="matrix(4.106394e-17 -0.6706 0.6706 4.106394e-17 1361.6464 6188.2153)">
		<stop  offset="0" style="stop-color:#FFFFFF"/>
		<stop  offset="8.000000e-02" style="stop-color:#F6F6F6"/>
		<stop  offset="0.22" style="stop-color:#DDDDDD"/>
		<stop  offset="0.4" style="stop-color:#B5B5B5"/>
		<stop  offset="0.61" style="stop-color:#7E7E7E"/>
		<stop  offset="0.83" style="stop-color:#383838"/>
		<stop  offset="1" style="stop-color:#000000"/>
	</linearGradient>
	<rect x="121.7" y="42.9" class="st2" width="1974" height="2080.6"/>
</g>
<g id="Layer_1_1_">
	<g>
		<g>
			<defs>
				<rect id="SVGID_2_" width="2220.1" height="3241.1"/>
			</defs>
			<clipPath id="SVGID_3_">
				<use xlink:href="#SVGID_2_"  style="overflow:visible;"/>
			</clipPath>
			<g class="st3">
				
					<linearGradient id="SVGID_4_" gradientUnits="userSpaceOnUse" x1="11154.5195" y1="754.1533" x2="10847.6396" y2="1443.1836" gradientTransform="matrix(0 -0.6706 -0.6706 0 1160.3158 7635.0415)">
					<stop  offset="0" style="stop-color:#4BBEA4"/>
					<stop  offset="1" style="stop-color:#4E4EA1"/>
				</linearGradient>
				<polygon class="st4" points="22.2,194 566.5,-116.9 566.5,505 				"/>
				
					<linearGradient id="SVGID_5_" gradientUnits="userSpaceOnUse" x1="-12543.9326" y1="468.4457" x2="-12811.3027" y2="1068.7755" gradientTransform="matrix(0 0.6706 0.6706 0 1322.2606 9608.1602)">
					<stop  offset="0" style="stop-color:#4BBEA4"/>
					<stop  offset="1" style="stop-color:#4E4EA1"/>
				</linearGradient>
				<polygon class="st5" points="2187.5,1162 1713.3,1432.9 1713.3,891 				"/>
				
					<linearGradient id="SVGID_6_" gradientUnits="userSpaceOnUse" x1="11714.7031" y1="-123.8604" x2="10678.4434" y2="-1311.4703" gradientTransform="matrix(0 -0.6706 -0.6706 0 1148.5598 7760.0195)">
					<stop  offset="0.32" style="stop-color:#19A2B2"/>
					<stop  offset="0.64" style="stop-color:#1D8BB7"/>
					<stop  offset="1" style="stop-color:#2075BC"/>
				</linearGradient>
				<path class="st6" d="M1726.9-124.4c254.4,0,460.7,206.3,460.7,460.7S1981.3,797,1726.9,797s-460.7-206.3-460.7-460.7
					S1472.4-124.4,1726.9-124.4z"/>
				
					<linearGradient id="SVGID_7_" gradientUnits="userSpaceOnUse" x1="10129.2305" y1="1647.6888" x2="9570.8408" y2="1007.7484" gradientTransform="matrix(0 -0.6706 -0.6706 0 1148.5598 7760.0195)">
					<stop  offset="0.32" style="stop-color:#19A2B2"/>
					<stop  offset="0.64" style="stop-color:#1D8BB7"/>
					<stop  offset="1" style="stop-color:#2075BC"/>
				</linearGradient>
				<path class="st7" d="M310.4,951.9c137.1,0,248.2,111.1,248.2,248.2s-111.1,248.2-248.2,248.2s-248.3-111-248.3-248.1
					S173.3,951.9,310.4,951.9z"/>
				
					<linearGradient id="SVGID_8_" gradientUnits="userSpaceOnUse" x1="10684.1416" y1="656.8448" x2="10340.7324" y2="263.275" gradientTransform="matrix(0 -0.6706 -0.6706 0 1148.5598 7760.0195)">
					<stop  offset="0.32" style="stop-color:#19A2B2"/>
					<stop  offset="0.64" style="stop-color:#1D8BB7"/>
					<stop  offset="1" style="stop-color:#2075BC"/>
				</linearGradient>
				<path class="st8" d="M872.1,585.7c84.3,0,152.7,68.4,152.7,152.7S956.4,891,872.1,891s-152.7-68.4-152.7-152.7
					S787.8,585.7,872.1,585.7z"/>
				
					<linearGradient id="SVGID_9_" gradientUnits="userSpaceOnUse" x1="5140.894" y1="-6413.2734" x2="4834.0137" y2="-5724.2334" gradientTransform="matrix(-0.4493 -0.4963 -0.4963 0.4493 -385.1393 7803.4805)">
					<stop  offset="0" style="stop-color:#4BBEA4"/>
					<stop  offset="1" style="stop-color:#4E4EA1"/>
				</linearGradient>
				<polygon class="st9" points="45.4,2819.3 242.6,2224.3 658.1,2687.1 				"/>
				
					<linearGradient id="SVGID_10_" gradientUnits="userSpaceOnUse" x1="-6666.3115" y1="7372.5273" x2="-6933.6914" y2="7972.8574" gradientTransform="matrix(0.4493 0.4963 0.4963 -0.4493 1043.3475 9151.7412)">
					<stop  offset="0" style="stop-color:#4BBEA4"/>
					<stop  offset="1" style="stop-color:#4E4EA1"/>
				</linearGradient>
				<polygon class="st10" points="2094.5,2135.8 1922.7,2654.2 1560.7,2251 				"/>
				
					<linearGradient id="SVGID_11_" gradientUnits="userSpaceOnUse" x1="5915.9692" y1="-6911.6035" x2="4941.8188" y2="-8028.0234" gradientTransform="matrix(-0.4493 -0.4963 -0.4963 0.4493 -310.3983 7904.3359)">
					<stop  offset="0.32" style="stop-color:#19A2B2"/>
					<stop  offset="0.64" style="stop-color:#1D8BB7"/>
					<stop  offset="1" style="stop-color:#2075BC"/>
				</linearGradient>
				<path class="st11" d="M789.8,1529.3c178-159.8,451.8-145,611.6,32.9s145,451.8-32.9,611.6c-178,159.8-451.8,145.1-611.6-32.9
					S611.9,1689.1,789.8,1529.3z"/>
				
					<linearGradient id="SVGID_12_" gradientUnits="userSpaceOnUse" x1="4653.022" y1="-6386.1641" x2="4309.6021" y2="-6779.7344" gradientTransform="matrix(-0.4493 -0.4963 -0.4963 0.4493 -310.3983 7904.3359)">
					<stop  offset="0.32" style="stop-color:#19A2B2"/>
					<stop  offset="0.64" style="stop-color:#1D8BB7"/>
					<stop  offset="1" style="stop-color:#2075BC"/>
				</linearGradient>
				<path class="st12" d="M880.7,2608.2c62.7-56.3,159.3-51.1,215.6,11.6s51.1,159.2-11.6,215.6s-159.3,51.1-215.6-11.6
					S818,2664.5,880.7,2608.2z"/>
				<g id="Layer_1-2">
					<g class="st13">
						<polygon class="st14" points="2206.4,2177.1 687.7,195.3 0,707.7 0,651.4 696.4,132.4 2203.7,2099.3 						"/>
					</g>
					<g class="st13">
						<polygon class="st14" points="2203.7,2395 660.2,366.4 0,858.4 0,841.5 662.9,347.6 2206.4,2361.8 						"/>
					</g>
					<polygon class="st15" points="2203.7,-85.2 2203.7,-141.9 842,888 101.1,-138.9 45.4,-138.9 832.4,951.9 					"/>
					<polyline class="st15" points="0,-47.3 813.2,1079.8 2203.7,28.1 2203.7,-30.9 822.8,1015.9 0,-124.5 					"/>
					<polygon class="st15" points="2203.7,2581.5 635.8,525 0,998.8 0,886.1 653.4,399.1 2206.4,2436 					"/>
					<g class="st13">
						<polygon class="st14" points="2203.7,2325.5 665.3,318 0,813.8 0,774.3 671.4,274 2203.7,2273.5 						"/>
					</g>
					<g class="st13">
						<polygon class="st14" points="785.7,1157.9 0,69.5 0,49.6 788.1,1142 2203.7,71.3 2203.7,85.5 						"/>
					</g>
					<polygon class="st15" points="0,4752.4 0,4809 1361.7,3779.1 2102.6,4806 2158.3,4806 1371.3,3715.2 					"/>
					<polyline class="st15" points="2203.7,4714.4 1390.5,3587.4 0,4639 0,4698 1380.9,3651.3 2203.7,4791.7 					"/>
					<g class="st13">
						<polygon class="st14" points="1417.9,3509.2 2203.7,4597.6 2203.7,4617.5 1415.5,3525.2 0,4595.8 0,4581.7 						"/>
					</g>
				</g>
				<rect class="st16" width="2220.1" height="3116.7"/>
			</g>
		</g>
	</g>
</g>
<g id="Layer_4">
	<g>
		<g>
			<defs>
				<rect id="SVGID_13_" y="3116.7" width="2220.1" height="124.4"/>
			</defs>
			<clipPath id="SVGID_14_">
				<use xlink:href="#SVGID_13_"  style="overflow:visible;"/>
			</clipPath>
			<g class="st17">
				<g>
					<g>
						<defs>
							<rect id="SVGID_15_" x="-54" y="3028" width="2357.9" height="213.1"/>
						</defs>
						<clipPath id="SVGID_16_">
							<use xlink:href="#SVGID_15_"  style="overflow:visible;"/>
						</clipPath>
						<g class="st18">
							<g id="Layer_1-3">
								<g class="st13">
									<polygon class="st14" points="2205.9,5418.3 687.2,3436.4 -0.5,3948.9 -0.5,3892.5 696,3373.5 2203.2,5340.4 									"/>
								</g>
								<g class="st13">
									<polygon class="st14" points="2203.2,5636.1 659.8,3607.5 -0.5,4099.6 -0.5,4082.7 662.4,3588.7 2205.9,5602.9 									
										"/>
								</g>
								<polygon class="st15" points="2203.2,3155.9 2203.2,3099.3 841.6,4129.2 100.6,3102.3 44.9,3102.3 832,4193.1 								"/>
								<polyline class="st15" points="-0.5,3193.8 812.7,4320.9 2203.2,3269.2 2203.2,3210.3 822.3,4257 -0.5,3116.6 								"/>
								<polygon class="st15" points="2203.2,5822.6 635.3,3766.1 -0.5,4239.9 -0.5,4127.2 653,3640.2 2205.9,5677.1 								"/>
								<g class="st13">
									<polygon class="st14" points="2203.2,5566.7 664.8,3559.1 -0.5,4054.9 -0.5,4015.4 670.9,3515.1 2203.2,5514.7 									
										"/>
								</g>
								<g class="st13">
									<polygon class="st14" points="785.3,4399.1 -0.5,3310.6 -0.5,3290.8 787.7,4383.1 2203.2,3312.5 2203.2,3326.6 									
										"/>
								</g>
								<g class="st13">
									<polygon class="st14" points="-3.2,5731.2 1515.5,7713 2203.2,7200.6 2203.2,7256.9 1506.8,7775.9 -0.5,5809 									"/>
								</g>
								<g class="st13">
									<polygon class="st14" points="-0.5,5513.3 1543,7541.9 2203.2,7049.9 2203.2,7066.8 1540.3,7560.7 -3.2,5546.5 									
										"/>
								</g>
								<polygon class="st15" points="-0.5,7993.5 -0.5,8050.1 1361.2,7020.3 2102.1,8047.2 2157.9,8047.2 1370.8,6956.3 								
									"/>
								<polyline class="st15" points="2203.2,7955.6 1390,6828.5 -0.5,7880.2 -0.5,7939.1 1380.4,6892.4 2203.2,8032.8 								"/>
								<polygon class="st15" points="-0.5,5326.8 1567.4,7383.3 2203.2,6909.5 2203.2,7022.2 1549.8,7509.2 -3.2,5472.3 								
									"/>
								<g class="st13">
									<polygon class="st14" points="-0.5,5582.7 1537.9,7590.3 2203.2,7094.5 2203.2,7134 1531.8,7634.3 -0.5,5634.7 									
										"/>
								</g>
								<g class="st13">
									<polygon class="st14" points="1417.5,6750.3 2203.2,7838.8 2203.2,7858.7 1415.1,6766.3 -0.5,7837 -0.5,7822.8 									
										"/>
								</g>
							</g>
						</g>
					</g>
				</g>
				<g>
					<g>
						<defs>
							<rect id="SVGID_17_" x="-54" y="2949.6" width="2273.7" height="291.5"/>
						</defs>
						<clipPath id="SVGID_18_">
							<use xlink:href="#SVGID_17_"  style="overflow:visible;"/>
						</clipPath>
						<g class="st19">
							
								<linearGradient id="SVGID_19_" gradientUnits="userSpaceOnUse" x1="6321.4302" y1="754.798" x2="6014.5503" y2="1443.8279" gradientTransform="matrix(0 -0.6706 -0.6706 0 1160.3158 7635.0415)">
								<stop  offset="0" style="stop-color:#4BBEA4"/>
								<stop  offset="1" style="stop-color:#4E4EA1"/>
							</linearGradient>
							<polygon class="st20" points="21.8,3435.2 566,3124.2 566,3746.1 							"/>
							
								<linearGradient id="SVGID_20_" gradientUnits="userSpaceOnUse" x1="6881.5952" y1="-123.0855" x2="5845.3354" y2="-1310.6951" gradientTransform="matrix(0 -0.6706 -0.6706 0 1148.5598 7760.0195)">
								<stop  offset="0.32" style="stop-color:#19A2B2"/>
								<stop  offset="0.64" style="stop-color:#1D8BB7"/>
								<stop  offset="1" style="stop-color:#2075BC"/>
							</linearGradient>
							<path class="st21" d="M1726.4,3116.7c254.4,0,460.7,206.3,460.7,460.7s-206.3,460.7-460.7,460.7s-460.7-206.3-460.7-460.7
								S1471.9,3116.7,1726.4,3116.7z"/>
						</g>
					</g>
				</g>
			</g>
		</g>
	</g>
</g>
</svg>
